<?xml version="1.0" encoding="UTF-8" standalone="no"?> <!-- Created with Vectornator for iOS (http://vectornator.io/) --><!DOCTYPE svg PUBLIC "-//W3C//DTD SVG 1.1//EN" "http://www.w3.org/Graphics/SVG/1.1/DTD/svg11.dtd">
<svg height="100%" style="fill-rule:nonzero;clip-rule:evenodd;stroke-linecap:round;stroke-linejoin:round;" xmlns:xlink="http://www.w3.org/1999/xlink" xmlns="http://www.w3.org/2000/svg" xml:space="preserve" width="100%" xmlns:vectornator="http://vectornator.io" version="1.1" viewBox="0 0 26 26">
<metadata>
<vectornator:setting key="DimensionsVisible" value="1"/>
<vectornator:setting key="PencilOnly" value="0"/>
<vectornator:setting key="SnapToPoints" value="0"/>
<vectornator:setting key="OutlineMode" value="0"/>
<vectornator:setting key="CMYKEnabledKey" value="0"/>
<vectornator:setting key="RulersVisible" value="1"/>
<vectornator:setting key="SnapToEdges" value="0"/>
<vectornator:setting key="GuidesVisible" value="1"/>
<vectornator:setting key="DisplayWhiteBackground" value="0"/>
<vectornator:setting key="doHistoryDisabled" value="0"/>
<vectornator:setting key="SnapToGuides" value="1"/>
<vectornator:setting key="TimeLapseWatermarkDisabled" value="0"/>
<vectornator:setting key="Units" value="Pixels"/>
<vectornator:setting key="DynamicGuides" value="0"/>
<vectornator:setting key="IsolateActiveLayer" value="0"/>
<vectornator:setting key="SnapToGrid" value="0"/>
</metadata>
<defs/>
<g id="图层 1" vectornator:layerName="图层 1">
<path stroke="#323849" stroke-width="2.55621" d="M17.9713+20.9404C16.7975+22.4208+15.5609+23.4231+12.2345+23.6401C10.6803+23.7414+8.08851+23.9534+5.96732+22.4107C5.45654+22.0393+4.72697+21.3119+4.11214+20.4818C3.64081+19.8454+3.23691+19.1488+3.05069+18.5058C2.86904+17.8787+2.58423+17.2808+2.42397+16.5293C2.25442+15.7341+2.21366+14.7922+2.18293+14.4081C2.12338+13.6638+2.04919+12.7281+2.25524+11.5396C2.40246+10.6905+2.7825+9.61233+3.00248+8.83995C3.15169+8.31606+3.53168+7.45761+3.79792+7.00801C4.36899+6.04367+4.95051+5.63346+5.36471+5.10376C5.97194+4.32721+6.65678+3.88848+7.79926+3.46466C8.81046+3.08953+10.1069+2.92988+11.1257+2.86205C12.1032+2.79696+13.1635+2.95259+14.1146+3.27182C15.6756+3.79578+15.9406+4.19584+16.3563+4.45294" fill="none" stroke-linecap="round" opacity="1" stroke-linejoin="round"/>
<path stroke="#323849" stroke-width="2.55621" d="M11.6801+18.2889C11.7511+14.617+13.5111+8.16518+17.1036+8.38196C19.8997+8.55069+23.5924+17.1109+23.8769+18.0237" fill="none" stroke-linecap="round" opacity="1" stroke-linejoin="round"/>
<path stroke="#323849" stroke-width="2.55621" d="M12.7889+14.8902C19.2971+14.1188+20.5185+14.1659+21.7798+13.9019" fill="none" stroke-linecap="round" opacity="1" stroke-linejoin="round"/>
</g>
</svg>
