<?xml version="1.0" standalone="no"?>
<!DOCTYPE svg PUBLIC "-//W3C//DTD SVG 20010904//EN"
 "http://www.w3.org/TR/2001/REC-SVG-20010904/DTD/svg10.dtd">
<svg version="1.0" xmlns="http://www.w3.org/2000/svg"
 width="640.000000pt" height="640.000000pt" viewBox="0 0 640.000000 640.000000"
 preserveAspectRatio="xMidYMid meet">
<metadata>
Created by potrace 1.14, written by Peter Selinger 2001-2017
</metadata>
<g transform="translate(0.000000,640.000000) scale(0.100000,-0.100000)"
fill="#000000" stroke="none">
<path d="M4558 5655 c-16 -18 -28 -36 -28 -40 0 -3 -14 -27 -31 -52 -17 -24
-35 -57 -40 -71 l-9 -27 4 28 c7 58 -23 15 -40 -55 -3 -16 -12 -28 -20 -28
-12 0 -12 -4 -2 -20 13 -20 13 -20 20 1 8 21 28 18 28 -4 0 -7 -4 -6 -10 3 -8
13 -10 13 -10 -2 0 -9 4 -19 8 -22 13 -8 52 41 59 74 3 17 9 30 14 30 5 0 9 7
9 15 0 8 -4 15 -10 15 -5 0 -7 7 -4 15 4 8 10 12 15 9 5 -3 6 2 3 10 -3 9 -1
16 5 16 6 0 11 7 11 16 0 9 5 12 11 8 7 -4 10 -1 7 6 -2 7 6 24 18 37 23 25
37 61 26 66 -4 2 -19 -11 -34 -28z"/>
<path d="M4536 5481 c-4 -7 -5 -15 -2 -18 9 -9 19 4 14 18 -4 11 -6 11 -12 0z"/>
<path d="M4274 5384 c-4 -10 -9 -22 -11 -26 -2 -5 0 -8 5 -8 10 0 24 41 17 48
-3 3 -8 -4 -11 -14z"/>
<path d="M6201 5368 c-38 -98 -61 -166 -61 -181 0 -18 29 -57 42 -57 5 0 8 7
8 15 0 18 22 47 70 93 39 37 40 53 7 110 -26 44 -53 52 -66 20z"/>
<path d="M1320 5338 c0 -23 4 -28 25 -28 19 0 26 -7 31 -27 15 -60 133 -203
168 -203 10 0 29 -14 43 -30 28 -34 47 -31 33 5 -8 20 -6 25 6 25 8 0 14 -6
13 -12 -3 -25 1 -38 12 -38 7 0 9 10 5 25 -6 24 3 33 17 18 11 -10 56 -12 62
-2 4 5 1 25 -6 44 -8 22 -16 30 -20 23 -6 -9 -11 -9 -22 0 -8 7 -22 10 -30 6
-12 -4 -18 2 -23 20 -3 14 -10 23 -15 21 -5 -3 -11 6 -15 20 -3 13 -10 23 -14
20 -4 -3 -13 2 -20 10 -11 13 -10 14 6 9 18 -7 18 -6 -1 17 -51 63 -85 85 -85
57 -1 -7 -10 -2 -21 11 -11 13 -22 22 -25 19 -7 -7 27 -91 40 -100 8 -5 8 -8
0 -8 -13 0 -51 49 -73 92 -9 17 -19 24 -29 21 -9 -4 -13 -2 -9 4 4 6 -5 10
-23 9 -26 -1 -30 -5 -30 -28z m185 -178 c3 -5 2 -10 -4 -10 -5 0 -13 5 -16 10
-3 6 -2 10 4 10 5 0 13 -4 16 -10z m98 -19 c7 -29 -7 -45 -23 -26 -10 11 -10
15 0 15 7 0 10 7 6 15 -3 8 -2 15 3 15 5 0 11 -9 14 -19z"/>
<path d="M1470 5355 c7 -9 15 -13 17 -11 7 7 -7 26 -19 26 -6 0 -6 -6 2 -15z"/>
<path d="M1611 5311 c-11 -7 -9 -14 12 -37 15 -15 29 -26 32 -23 4 5 -22 69
-28 69 -1 0 -8 -4 -16 -9z"/>
<path d="M6170 5110 c-13 -8 -12 -10 3 -10 9 0 17 5 17 10 0 12 -1 12 -20 0z"/>
<path d="M3390 4930 c0 -5 5 -10 11 -10 5 0 7 5 4 10 -3 6 -8 10 -11 10 -2 0
-4 -4 -4 -10z"/>
<path d="M3430 4820 c-6 -11 -8 -20 -6 -20 3 0 10 9 16 20 6 11 8 20 6 20 -3
0 -10 -9 -16 -20z"/>
<path d="M3332 4770 c0 -19 2 -27 5 -17 2 9 2 25 0 35 -3 9 -5 1 -5 -18z"/>
<path d="M3356 4755 c-9 -26 -7 -32 5 -12 6 10 9 21 6 23 -2 3 -7 -2 -11 -11z"/>
<path d="M3387 4743 c-4 -3 -7 -14 -7 -23 0 -10 -8 -24 -17 -31 -15 -12 -16
-12 -9 6 5 14 4 17 -4 9 -5 -5 -11 -32 -12 -58 -1 -26 -4 -43 -6 -37 -2 6 -8
9 -12 6 -7 -5 -7 28 1 60 1 6 -1 18 -5 27 -12 28 -37 -4 -43 -55 -4 -33 -2
-39 7 -27 10 13 11 12 6 -3 -3 -10 -6 -30 -6 -43 0 -14 -4 -23 -9 -20 -4 3 -6
16 -4 29 5 25 -19 58 -40 56 -9 0 -8 -2 1 -6 6 -2 12 -9 12 -14 0 -4 -6 -6
-12 -4 -10 4 -14 -20 -16 -97 -2 -69 -8 -110 -18 -126 -10 -15 -12 -28 -6 -39
7 -11 11 -12 17 -4 4 7 5 15 2 17 -3 3 1 25 9 50 7 24 11 51 8 58 -5 13 5 14
34 7 1 -1 -2 -10 -8 -22 -7 -11 -9 -24 -5 -27 10 -10 25 20 25 51 0 15 7 30
15 33 8 4 15 14 15 23 0 9 4 22 9 29 7 11 9 10 14 -3 4 -9 3 -13 -3 -10 -6 3
-11 -6 -12 -22 -4 -65 -7 -90 -16 -125 -7 -26 -6 -38 2 -42 7 -3 7 -5 -1 -5
-7 -1 -13 -5 -13 -11 0 -19 28 2 33 25 2 14 0 22 -4 19 -5 -3 -9 5 -9 18 0 18
2 20 10 8 8 -12 10 -9 10 12 0 14 3 35 6 45 5 15 4 15 -5 3 -9 -12 -11 -11
-11 8 0 12 4 22 9 22 5 0 12 16 15 36 9 43 38 82 46 60 4 -11 8 -9 16 9 10 21
9 23 -8 20 -12 -3 -18 0 -15 8 3 7 9 11 15 10 5 -1 13 4 16 12 3 8 2 14 -2 14
-17 -3 -19 3 -12 36 8 36 8 39 -3 28z m-86 -70 c-8 -15 -10 -15 -11 -2 0 17
10 32 18 25 2 -3 -1 -13 -7 -23z m50 -36 c-10 -9 -11 -8 -5 6 3 10 9 15 12 12
3 -3 0 -11 -7 -18z m-110 -84 c-12 -20 -14 -14 -5 12 4 9 9 14 11 11 3 -2 0
-13 -6 -23z"/>
<path d="M3232 4705 c0 -16 2 -22 5 -12 2 9 2 23 0 30 -3 6 -5 -1 -5 -18z"/>
<path d="M3200 4673 c1 -35 3 -44 10 -32 11 18 9 79 -2 79 -5 0 -8 -21 -8 -47z"/>
<path d="M2838 4676 c-3 -14 -2 -23 3 -21 4 3 10 -3 12 -12 3 -12 5 -10 6 7 1
38 -15 58 -21 26z"/>
<path d="M3654 4659 c-14 -22 -23 -43 -21 -46 3 -2 -7 -28 -21 -56 -31 -61
-40 -106 -16 -86 9 7 12 20 9 33 -5 16 -4 18 4 6 5 -8 11 -12 13 -10 21 33 38
71 29 66 -7 -5 -11 1 -11 13 0 12 6 20 13 19 7 -2 12 8 11 27 0 17 6 36 13 43
13 13 18 32 8 32 -3 0 -16 -18 -31 -41z m6 -50 c0 -6 -4 -7 -10 -4 -5 3 -10
11 -10 16 0 6 5 7 10 4 6 -3 10 -11 10 -16z m-26 -64 c-4 -8 -10 -15 -15 -15
-4 0 -6 7 -3 15 4 8 10 15 15 15 4 0 6 -7 3 -15z"/>
<path d="M3593 4668 c-1 -34 3 -35 18 -7 6 13 7 19 1 15 -6 -3 -12 0 -15 6 -2
7 -4 1 -4 -14z"/>
<path d="M2887 4638 c-3 -26 -1 -45 5 -49 6 -4 7 -12 3 -19 -6 -9 -10 -9 -17
1 -7 11 -8 9 -4 -4 3 -10 6 -24 7 -30 0 -7 4 -3 9 8 7 19 9 18 19 -8 6 -16 11
-43 11 -60 -1 -31 -1 -31 -17 -12 -14 18 -15 18 -9 2 3 -11 9 -29 12 -42 4
-16 11 -22 22 -18 13 4 14 3 3 -5 -16 -12 -7 -65 16 -87 8 -8 10 -15 4 -15
-19 0 -12 -18 9 -25 16 -5 20 -15 20 -53 l-1 -47 -13 30 c-7 17 -11 34 -8 39
3 5 0 6 -6 2 -6 -3 -15 6 -20 21 -6 16 -11 22 -11 14 -1 -11 -5 -10 -16 5 -14
19 -14 19 -15 -2 0 -12 6 -27 14 -33 8 -7 13 -20 11 -29 -1 -9 1 -21 5 -27 4
-5 13 -27 18 -48 9 -33 9 -37 -4 -26 -8 6 -14 22 -14 35 0 12 -5 26 -10 29 -6
3 -8 17 -6 31 3 13 1 24 -3 24 -12 0 -11 -51 1 -74 8 -15 6 -22 -7 -33 -15
-10 -16 -17 -7 -37 9 -21 8 -23 -9 -19 -18 5 -23 14 -20 40 2 12 -40 46 -47
38 -3 -2 1 -11 8 -20 7 -9 10 -18 7 -22 -4 -3 3 -18 14 -34 14 -20 18 -36 13
-55 -5 -19 -4 -25 5 -20 6 4 11 14 11 23 0 14 3 14 18 -3 24 -25 25 -50 1 -28
-11 10 -19 12 -24 4 -9 -14 -25 -3 -25 19 0 10 -7 18 -14 18 -19 0 -14 -72 7
-96 8 -9 13 -35 12 -58 -1 -49 2 -52 16 -20 l10 22 -5 -22 c-2 -13 0 -25 5
-28 4 -3 5 -13 2 -22 -4 -11 -3 -14 5 -9 7 4 12 3 12 -3 0 -5 -4 -12 -9 -15
-5 -3 -7 -16 -3 -28 3 -14 2 -19 -6 -14 -7 4 -12 1 -12 -9 0 -9 5 -13 10 -10
6 3 10 1 10 -5 0 -7 6 -10 14 -7 7 3 19 0 25 -6 9 -9 13 -6 18 13 6 24 7 24
23 -13 l17 -38 7 43 c6 38 9 41 18 24 8 -15 8 -21 0 -24 -15 -5 3 -42 20 -42
9 0 9 3 0 12 -17 17 -15 28 4 21 13 -5 15 -2 10 15 -6 17 -4 21 8 16 9 -3 16
-2 16 4 0 6 -5 12 -12 14 -7 3 -8 9 -3 18 11 17 56 -74 48 -98 -4 -14 -3 -14
5 -3 6 8 10 29 10 48 0 49 10 52 18 5 6 -36 9 -40 30 -36 18 3 24 0 24 -12 0
-10 3 -15 6 -11 9 9 -15 75 -29 80 -8 3 -4 13 11 28 12 13 22 21 22 17 0 -4
-7 -14 -16 -22 -8 -9 -11 -16 -5 -16 6 0 11 -8 12 -17 0 -14 2 -15 6 -3 4 8
13 21 22 30 13 13 14 13 9 -1 -10 -25 6 -43 23 -27 19 18 59 19 52 2 -3 -8 -9
-12 -13 -9 -5 3 -12 0 -16 -6 -5 -8 -3 -9 6 -4 10 6 12 4 7 -8 -5 -14 -3 -15
13 -4 11 6 20 15 20 19 0 5 4 8 10 8 5 0 7 -7 3 -15 -3 -10 0 -15 8 -13 8 2
13 -2 12 -8 -1 -6 10 -9 27 -6 22 3 32 -1 37 -14 4 -10 2 -19 -5 -22 -7 -2
-12 -8 -12 -13 0 -6 5 -7 11 -4 6 4 13 -3 16 -15 4 -14 12 -20 27 -19 11 1 38
-5 60 -14 21 -9 43 -17 48 -17 6 0 7 -11 4 -25 -8 -32 10 -52 50 -57 24 -2 30
1 32 20 4 25 6 26 34 11 12 -7 18 -7 14 -1 -3 6 -3 12 1 15 5 2 3 2 -4 1 -7
-2 -10 3 -7 11 3 7 -3 16 -14 19 -30 10 -76 53 -64 60 6 3 13 2 16 -2 3 -5 17
-7 30 -5 17 4 28 -1 38 -16 7 -12 18 -21 25 -21 7 0 13 -4 13 -10 0 -5 4 -10
8 -10 10 0 8 42 -2 59 -7 10 -4 11 11 2 11 -6 23 -7 27 -4 10 10 -14 32 -29
27 -7 -3 -16 -1 -19 4 -9 15 23 23 45 11 15 -7 23 -6 35 6 10 9 11 15 4 15 -8
0 -10 8 -7 21 4 13 0 22 -11 27 -22 8 -43 29 -46 45 -1 6 -6 18 -10 26 -7 11
-5 13 7 8 10 -3 17 -2 17 4 0 5 13 3 30 -6 38 -20 53 -19 16 1 -20 11 -25 18
-17 24 9 5 5 9 -10 13 -36 10 -10 28 40 29 22 0 41 4 41 9 0 5 9 9 20 9 11 0
20 4 20 9 0 5 15 12 33 16 17 4 49 20 69 36 22 18 48 29 65 28 l28 -1 -28 -11
c-39 -16 -28 -32 24 -34 29 -1 36 1 21 5 -21 7 -21 8 10 20 72 29 143 71 135
79 -7 6 -57 -20 -57 -30 0 -5 -11 -6 -25 -3 -26 7 -35 -8 -12 -18 6 -3 -1 -3
-18 0 -16 4 -38 6 -49 6 -18 -1 -18 -1 0 14 18 14 18 15 -6 8 l-25 -7 25 21
25 21 -23 1 c-16 0 -21 -4 -16 -12 6 -10 4 -10 -7 0 -18 17 -30 15 -23 -3 4
-10 0 -15 -16 -15 -31 0 -62 -19 -54 -33 4 -7 4 -9 -1 -5 -4 4 -14 3 -21 -3
-8 -6 -21 -9 -29 -5 -8 3 -15 1 -15 -5 0 -6 -5 -7 -12 -2 -16 10 -118 11 -112
2 5 -8 -50 -38 -80 -44 -10 -3 -21 -7 -25 -11 -3 -4 3 -4 13 0 15 5 17 4 7 -8
-6 -8 -20 -12 -31 -9 -10 3 -33 -2 -50 -11 -27 -13 -31 -13 -26 -1 3 8 -3 19
-12 24 -14 9 -15 10 -1 11 8 0 23 6 33 13 17 13 18 14 2 20 -9 4 -14 3 -11 -2
3 -6 -9 -11 -27 -13 -19 -2 -32 -8 -31 -15 3 -13 -53 -34 -99 -37 -22 -2 -32
3 -36 16 -2 10 -8 16 -12 13 -5 -3 -11 4 -15 15 -3 11 -13 20 -21 20 -8 0 -14
8 -14 18 0 15 -2 15 -11 2 -8 -12 -9 -10 -4 7 3 12 3 38 -1 58 l-7 37 -17 -39
c-12 -26 -14 -44 -8 -56 5 -10 7 -26 5 -35 -4 -15 -5 -15 -6 1 0 10 -8 29 -17
43 -9 13 -14 27 -10 31 3 3 6 0 7 -8 1 -26 18 25 18 58 1 35 17 53 24 26 2
-10 3 11 3 47 -1 41 5 78 15 100 9 19 19 56 22 83 3 26 8 51 11 55 3 5 1 22
-4 38 -4 16 -9 23 -9 16 -1 -7 -4 -11 -8 -9 -5 3 -8 -11 -8 -31 -1 -21 -9 -53
-18 -72 -11 -21 -15 -45 -12 -62 7 -28 -7 -39 -21 -16 -11 17 -25 -29 -18 -58
3 -13 11 -21 16 -18 15 9 -2 -39 -18 -51 -7 -5 -14 -19 -17 -30 -3 -11 -5 -1
-6 23 -1 27 3 41 9 37 6 -3 10 0 10 8 0 22 -33 15 -44 -8 -9 -19 -10 -19 -13
2 -3 13 3 33 11 45 11 16 16 18 17 8 2 -28 17 35 17 70 0 19 -2 26 -5 15 -2
-11 -6 -30 -9 -43 -2 -13 -9 -20 -14 -17 -6 3 -10 -4 -10 -17 0 -18 -2 -20
-10 -8 -9 13 -10 13 -11 0 0 -10 -3 -8 -9 5 -7 16 -9 13 -9 -17 -1 -20 -6 -40
-13 -44 -11 -7 -8 38 7 106 5 22 4 21 -9 -5 l-14 -30 -3 40 c-1 31 -3 34 -6
13 -3 -16 -11 -28 -19 -28 -8 0 -14 6 -12 13 1 6 -1 21 -4 32 -4 11 -9 38 -12
60 -5 33 -4 37 5 21 7 -11 12 -32 11 -48 0 -15 3 -28 7 -28 4 0 8 14 9 32 0
17 7 35 14 40 8 6 9 11 3 14 -6 2 -9 23 -8 47 3 48 -2 41 -12 -16 -8 -50 -25
-38 -25 19 0 25 -5 44 -11 44 -7 0 -9 -10 -5 -25 7 -27 -3 -105 -13 -105 -4 0
-12 15 -19 33 -10 29 -10 30 3 13 12 -16 15 -17 15 -4 0 9 -5 18 -11 20 -9 3
-9 10 1 27 17 33 4 139 -15 120 -2 -3 -1 -28 4 -57 8 -49 0 -91 -12 -61 -2 8
-4 -10 -2 -38 1 -29 -2 -53 -7 -53 -5 0 -8 16 -7 34 2 19 0 38 -3 42 -4 3 -5
20 -2 38 3 23 0 19 -11 -14 -8 -25 -16 -70 -17 -100 0 -30 -3 -46 -6 -35 -2
11 -8 25 -13 31 -9 11 -17 64 -24 149 -3 37 -1 45 6 32 6 -9 8 -21 4 -26 -3
-5 0 -13 6 -17 18 -10 4 51 -22 101 -12 22 -24 54 -26 70 -7 43 -10 41 -16 -7z
m110 -300 c-3 -8 -6 -5 -6 6 -1 11 2 17 5 13 3 -3 4 -12 1 -19z m83 -18 c0 -5
-5 -10 -11 -10 -5 0 -7 5 -4 10 3 6 8 10 11 10 2 0 4 -4 4 -10z m-50 -48 c0
-37 -15 -60 -24 -37 -8 21 -8 60 0 68 12 12 24 -4 24 -31z m306 1 c-10 -10
-19 5 -10 18 6 11 8 11 12 0 2 -7 1 -15 -2 -18z m-37 -76 c0 -21 -1 -21 -9 -2
-5 12 -9 14 -9 6 -1 -8 -3 -12 -6 -9 -9 8 6 38 16 32 5 -3 9 -15 8 -27z m-202
-49 c-3 -8 -6 -5 -6 6 -1 11 2 17 5 13 3 -3 4 -12 1 -19z m-119 -33 c-3 -3 -9
2 -12 12 -6 14 -5 15 5 6 7 -7 10 -15 7 -18z m239 -68 c-4 -18 -5 -17 -6 6 0
16 -5 26 -11 22 -11 -7 -14 8 -3 19 11 10 25 -22 20 -47z m-337 -126 c0 -3
-11 7 -25 23 -14 16 -25 34 -25 39 0 6 11 -4 25 -23 14 -19 25 -36 25 -39z
m387 7 c-3 -8 -6 -5 -6 6 -1 11 2 17 5 13 3 -3 4 -12 1 -19z m563 12 c0 -5 -7
-7 -15 -4 -8 4 -15 8 -15 10 0 2 7 4 15 4 8 0 15 -4 15 -10z m-496 -16 c3 -8
2 -12 -4 -9 -6 3 -10 10 -10 16 0 14 7 11 14 -7z m-57 -36 c-3 -8 -6 -5 -6 6
-1 11 2 17 5 13 3 -3 4 -12 1 -19z m-266 -121 c-8 -8 -11 2 -10 34 l1 44 10
-34 c6 -23 6 -37 -1 -44z m276 26 c-3 -10 -5 -4 -5 12 0 17 2 24 5 18 2 -7 2
-21 0 -30z m-43 3 c-8 -20 -24 -21 -24 0 0 8 5 12 10 9 6 -3 10 -1 10 6 0 7 2
10 5 7 3 -3 3 -13 -1 -22z m-281 -26 c3 -11 1 -18 -4 -14 -5 3 -9 12 -9 20 0
20 7 17 13 -6z m304 -2 c-3 -8 -6 -5 -6 6 -1 11 2 17 5 13 3 -3 4 -12 1 -19z
m115 -40 c-7 -7 -12 -8 -12 -2 0 6 3 14 7 17 3 4 9 5 12 2 2 -3 -1 -11 -7 -17z
m398 -24 c0 -2 -7 -4 -15 -4 -8 0 -15 4 -15 10 0 5 7 7 15 4 8 -4 15 -8 15
-10z m-15 -24 c3 -6 -1 -7 -9 -4 -18 7 -21 14 -7 14 6 0 13 -4 16 -10z m-83
-25 c3 3 11 -3 19 -12 13 -16 12 -17 -3 -4 -13 10 -18 10 -18 1 0 -18 -23 -6
-26 14 -2 13 1 14 10 7 7 -6 15 -9 18 -6z m-237 -15 c3 -5 1 -10 -4 -10 -6 0
-11 5 -11 10 0 6 2 10 4 10 3 0 8 -4 11 -10z m65 -27 c0 -14 -2 -15 -9 -4 -7
11 -9 11 -14 0 -4 -10 -6 -9 -6 4 -1 9 6 17 14 17 8 0 15 -8 15 -17z"/>
<path d="M2982 4660 c0 -14 2 -19 5 -12 2 6 2 18 0 25 -3 6 -5 1 -5 -13z"/>
<path d="M2871 4654 c0 -11 3 -14 6 -6 3 7 2 16 -1 19 -3 4 -6 -2 -5 -13z"/>
<path d="M3055 4630 c3 -19 9 -50 12 -67 7 -40 23 -44 22 -5 0 33 -16 113 -18
92 -1 -13 -2 -13 -12 0 -8 11 -9 6 -4 -20z"/>
<path d="M3453 4643 c-7 -2 -12 -14 -12 -26 1 -19 2 -20 6 -3 4 15 7 16 14 5
6 -11 9 -8 9 9 0 12 -1 22 -2 21 -2 0 -9 -3 -15 -6z"/>
<path d="M3500 4625 c0 -16 -2 -17 -9 -6 -7 10 -12 2 -18 -30 -10 -46 -7 -62
6 -40 5 7 7 23 5 35 -2 11 -1 15 2 8 5 -10 10 -8 21 8 11 16 12 25 4 33 -8 8
-11 6 -11 -8z"/>
<path d="M3950 4620 c-8 -5 -12 -12 -9 -15 4 -3 12 1 19 10 14 17 11 19 -10 5z"/>
<path d="M2729 4595 c5 -17 12 -39 15 -50 3 -11 3 -2 1 19 -2 22 -9 44 -15 50
-7 7 -8 2 -1 -19z"/>
<path d="M3038 4595 c2 -14 6 -25 8 -25 2 0 4 11 4 25 0 14 -4 25 -9 25 -4 0
-6 -11 -3 -25z"/>
<path d="M3147 4578 c8 -57 13 -61 13 -10 0 22 -4 43 -9 46 -5 4 -7 -12 -4
-36z"/>
<path d="M3522 4597 c-7 -16 -9 -33 -6 -39 4 -6 2 -8 -4 -4 -11 7 -41 -61 -46
-104 -1 -14 -5 -31 -9 -37 -4 -6 -4 -18 -1 -27 3 -9 2 -16 -4 -16 -6 0 -8 -8
-5 -19 3 -10 0 -22 -6 -25 -6 -4 -11 -3 -11 1 0 5 -7 18 -16 29 -8 10 -13 13
-9 6 4 -7 1 -21 -7 -30 -11 -15 -11 -16 3 -4 14 10 18 10 23 -4 10 -26 35 2
42 47 4 22 10 39 15 39 5 0 6 6 3 14 -3 7 2 29 11 47 l15 34 -5 -39 -4 -39 24
23 c26 24 35 51 12 31 -11 -9 -14 -5 -12 19 3 63 5 71 14 65 5 -3 13 0 17 6 4
7 3 9 -4 5 -6 -4 -12 4 -14 21 l-3 28 -13 -28z"/>
<path d="M3412 4590 c-15 -25 -15 -30 0 -30 6 0 8 3 5 7 -4 3 -2 12 5 20 6 7
9 15 7 18 -3 2 -10 -5 -17 -15z"/>
<path d="M3675 4593 c-14 -37 5 -40 24 -4 7 13 6 18 -4 18 -8 0 -17 -7 -20
-14z"/>
<path d="M3603 4588 c-15 -20 -25 -38 -20 -38 3 0 12 11 21 25 17 26 16 35 -1
13z"/>
<path d="M1296 4573 c-4 -4 -21 -8 -38 -8 -26 -1 -33 -6 -39 -29 -10 -35 -2
-51 15 -37 7 6 15 8 18 5 8 -8 90 -14 111 -8 11 4 17 15 17 36 0 22 -4 29 -14
25 -8 -3 -22 1 -33 8 -21 17 -27 18 -37 8z"/>
<path d="M3361 4573 c-1 -6 -4 -20 -7 -30 -5 -17 -5 -17 6 0 6 10 9 23 6 30
-3 9 -5 9 -5 0z"/>
<path d="M2640 4568 c0 -4 9 -22 20 -40 11 -18 20 -28 20 -23 0 6 -9 24 -20
40 -11 17 -20 27 -20 23z"/>
<path d="M3428 4552 c-6 -23 -1 -32 19 -32 17 0 17 11 0 35 -13 17 -14 17 -19
-3z"/>
<path d="M3930 4550 c-6 -11 -8 -20 -6 -20 3 0 10 9 16 20 6 11 8 20 6 20 -3
0 -10 -9 -16 -20z"/>
<path d="M3793 4542 c-9 -15 -8 -19 3 -19 8 0 12 3 9 5 -3 3 0 11 6 19 6 7 7
13 3 13 -5 0 -14 -8 -21 -18z"/>
<path d="M2972 4520 c0 -19 2 -27 5 -17 2 9 2 25 0 35 -3 9 -5 1 -5 -18z"/>
<path d="M3380 4541 c0 -17 18 -21 24 -6 3 9 0 15 -9 15 -8 0 -15 -4 -15 -9z"/>
<path d="M3661 4534 c0 -11 3 -14 6 -6 3 7 2 16 -1 19 -3 4 -6 -2 -5 -13z"/>
<path d="M3862 4530 c-7 -11 -12 -25 -12 -32 0 -7 7 0 15 16 18 33 15 45 -3
16z"/>
<path d="M3167 4523 c-3 -10 -5 -40 -5 -68 0 -44 1 -46 8 -21 5 16 7 43 4 60
-4 24 -3 27 5 16 9 -13 11 -13 11 2 0 24 -18 32 -23 11z"/>
<path d="M3700 4525 c-7 -9 -10 -18 -7 -22 4 -3 1 -13 -6 -22 -11 -14 -10 -14
6 -2 9 8 15 16 13 19 -3 2 -1 13 5 23 12 23 6 25 -11 4z"/>
<path d="M3961 4523 c-6 -10 -11 -14 -11 -9 0 5 -9 1 -20 -9 -15 -13 -20 -14
-20 -5 0 17 -66 -54 -88 -95 -9 -16 -15 -36 -13 -44 1 -8 -2 -10 -11 -5 -7 4
-10 4 -6 -1 4 -4 3 -16 -3 -26 -5 -11 -6 -19 -2 -19 14 0 34 17 32 26 -4 15
13 46 20 36 4 -6 16 -2 30 9 22 18 23 21 9 35 -12 12 -17 13 -23 3 -6 -8 -4
-10 6 -4 8 5 10 4 6 0 -4 -5 -15 -10 -23 -11 -14 -2 -14 0 -1 19 8 12 19 22
25 22 14 0 27 14 27 28 0 7 6 13 13 13 6 1 14 3 17 4 3 1 9 3 14 4 5 0 13 4
17 9 20 20 24 4 5 -17 -13 -14 -20 -30 -16 -38 3 -7 0 -5 -8 5 -14 17 -15 17
-13 -6 2 -34 21 -23 50 29 20 35 22 45 11 54 -10 8 -16 7 -24 -7z"/>
<path d="M2620 4515 c0 -2 7 -8 15 -15 12 -10 15 -10 15 2 0 8 -7 15 -15 15
-8 0 -15 -1 -15 -2z"/>
<path d="M2810 4517 c0 -15 24 -67 30 -67 11 0 -8 58 -21 66 -5 3 -9 3 -9 1z"/>
<path d="M4045 4511 c-3 -6 -12 -8 -18 -4 -9 5 -8 2 0 -8 11 -13 8 -20 -12
-39 -14 -13 -25 -18 -25 -12 0 7 -13 -2 -29 -20 -19 -21 -26 -37 -20 -42 15
-16 11 -23 -30 -43 -37 -18 -38 -18 -28 -1 7 10 15 19 19 19 5 1 13 2 18 3 14
1 14 20 1 24 -6 2 -31 -16 -56 -40 -50 -49 -100 -88 -111 -88 -4 0 1 9 11 20
10 11 13 20 7 20 -6 0 -16 -8 -21 -17 -9 -15 -12 -16 -20 -4 -7 10 -5 18 6 26
10 8 12 14 6 18 -12 8 -25 -17 -27 -49 -1 -11 -8 -29 -16 -40 -9 -11 -4 -9 13
5 28 25 49 23 28 -3 -9 -11 -9 -15 1 -19 18 -6 50 12 43 23 -4 6 1 7 11 3 12
-4 15 -3 10 5 -4 7 -1 12 8 12 8 0 32 11 52 25 20 14 43 25 51 25 9 0 11 5 7
13 -5 7 -1 7 12 -3 10 -8 16 -11 12 -6 -9 11 69 69 82 61 5 -3 12 0 16 6 5 8
3 9 -6 4 -8 -5 -11 -4 -6 3 4 6 13 9 21 6 7 -3 18 4 25 16 10 18 14 19 28 8
14 -10 13 -9 -1 9 -10 11 -26 20 -35 18 -9 -2 -21 -4 -25 -4 -5 -1 -5 -6 -2
-11 4 -6 10 -8 14 -6 4 3 8 -1 8 -9 0 -13 -3 -13 -17 0 -13 12 -19 12 -29 2
-11 -10 -11 -8 -2 8 6 11 18 30 27 43 13 17 14 22 3 22 -11 0 -11 2 1 10 8 5
12 12 8 15 -3 4 -9 1 -13 -4z m-74 -104 l-23 -22 17 28 c10 15 20 25 23 22 3
-3 -5 -16 -17 -28z m29 -11 c0 -2 -8 -10 -17 -17 -16 -13 -17 -12 -4 4 13 16
21 21 21 13z"/>
<path d="M3396 4495 c-3 -9 -6 -22 -5 -28 0 -7 5 -1 10 12 5 13 8 26 5 28 -2
2 -6 -3 -10 -12z"/>
<path d="M3444 4498 c3 -10 -1 -36 -9 -59 -20 -57 -11 -61 10 -6 13 36 15 49
5 64 -10 15 -11 16 -6 1z"/>
<path d="M3637 4478 c-8 -18 -18 -48 -22 -65 -4 -18 -11 -33 -17 -33 -6 0 -8
-7 -5 -15 4 -8 2 -17 -3 -20 -6 -4 -10 -1 -10 6 0 17 -55 -59 -64 -88 -4 -12
-2 -24 5 -29 8 -5 9 -3 4 6 -5 9 -4 11 3 6 9 -5 9 -13 1 -27 -6 -12 -8 -23 -5
-27 3 -3 6 1 6 9 0 12 2 12 9 1 7 -11 13 -9 31 10 l22 23 -7 -25 c-4 -14 -14
-38 -22 -53 -8 -16 -12 -31 -10 -34 3 -2 15 19 28 46 12 28 26 51 31 51 4 0 8
6 8 14 0 8 4 16 9 18 9 3 81 113 81 123 0 3 -16 -13 -36 -35 -40 -44 -57 -46
-30 -4 10 14 15 28 12 31 -3 4 0 13 6 21 7 8 13 21 14 29 4 24 -23 -4 -30 -32
-4 -15 -13 -25 -24 -24 -10 0 -12 3 -4 6 6 2 9 9 6 15 -4 5 -2 20 4 31 20 44
35 88 30 93 -3 2 -12 -10 -21 -28z m-86 -192 c-14 -36 -22 -33 -9 5 6 16 12
28 14 26 3 -2 0 -16 -5 -31z"/>
<path d="M3786 4502 c-3 -5 1 -9 9 -9 8 0 12 4 9 9 -3 4 -7 8 -9 8 -2 0 -6 -4
-9 -8z"/>
<path d="M3282 4475 c0 -16 2 -22 5 -12 2 9 2 23 0 30 -3 6 -5 -1 -5 -18z"/>
<path d="M4095 4484 c-38 -19 -52 -33 -32 -30 9 1 20 5 23 9 4 4 14 7 23 6 12
0 11 -2 -3 -8 -12 -4 -15 -10 -9 -14 6 -4 19 3 29 15 11 12 13 18 7 14 -7 -4
-13 -3 -13 3 0 5 6 12 13 14 6 3 8 6 2 6 -5 1 -23 -6 -40 -15z"/>
<path d="M2500 4483 c0 -4 5 -15 10 -23 8 -13 10 -13 10 2 0 9 -4 20 -10 23
-5 3 -10 3 -10 -2z"/>
<path d="M3561 4464 c0 -11 3 -14 6 -6 3 7 2 16 -1 19 -3 4 -6 -2 -5 -13z"/>
<path d="M3702 4460 c-18 -29 -15 -38 4 -12 9 13 14 25 12 27 -2 2 -9 -5 -16
-15z"/>
<path d="M2680 4442 c6 -13 14 -21 18 -18 3 4 -2 14 -12 24 -18 16 -18 16 -6
-6z"/>
<path d="M3371 4444 c0 -11 3 -14 6 -6 3 7 2 16 -1 19 -3 4 -6 -2 -5 -13z"/>
<path d="M3796 4445 c-9 -26 -7 -32 5 -12 6 10 9 21 6 23 -2 3 -7 -2 -11 -11z"/>
<path d="M3746 4435 c-3 -9 -10 -14 -15 -10 -5 3 -12 1 -15 -4 -8 -13 22 -7
36 7 6 6 9 14 6 17 -3 3 -8 -1 -12 -10z"/>
<path d="M4125 4440 c-3 -6 1 -7 9 -4 18 7 21 14 7 14 -6 0 -13 -4 -16 -10z"/>
<path d="M3559 4413 c-5 -14 -8 -34 -6 -42 3 -11 5 -9 6 5 0 12 8 27 16 34 17
14 20 30 5 30 -6 0 -15 -12 -21 -27z"/>
<path d="M3886 4431 c-4 -5 -2 -12 3 -15 5 -4 12 -2 15 3 4 5 2 12 -3 15 -5 4
-12 2 -15 -3z"/>
<path d="M3770 4421 c0 -6 4 -13 10 -16 6 -3 7 1 4 9 -7 18 -14 21 -14 7z"/>
<path d="M4190 4420 c-9 -6 -10 -10 -3 -10 6 0 15 5 18 10 8 12 4 12 -15 0z"/>
<path d="M2839 4416 c-7 -7 13 -76 22 -76 3 0 6 13 5 29 -1 16 -4 27 -8 25 -3
-2 -8 3 -10 12 -2 9 -6 13 -9 10z"/>
<path d="M2893 4405 c4 -11 7 -37 9 -57 1 -22 7 -38 14 -38 9 0 9 12 -1 51 -8
28 -17 54 -21 58 -3 3 -4 -3 -1 -14z"/>
<path d="M3230 4405 c0 -7 -3 -27 -6 -44 -9 -45 13 -39 25 7 14 48 14 49 -4
49 -8 0 -15 -6 -15 -12z"/>
<path d="M2516 4391 c-4 -5 -2 -12 4 -16 5 -3 10 -16 10 -28 0 -14 3 -18 10
-11 7 7 6 19 -4 38 -7 15 -17 23 -20 17z"/>
<path d="M2810 4395 c0 -5 5 -17 10 -25 5 -8 10 -10 10 -5 0 6 -5 17 -10 25
-5 8 -10 11 -10 5z"/>
<path d="M3756 4383 c-6 -14 -5 -15 5 -6 7 7 10 15 7 18 -3 3 -9 -2 -12 -12z"/>
<path d="M4081 4380 c-31 -26 -7 -26 26 0 14 11 20 20 12 20 -8 -1 -25 -10
-38 -20z"/>
<path d="M3498 4373 c-9 -10 -23 -33 -32 -51 -14 -26 -15 -36 -5 -48 9 -11 9
-18 -3 -32 -21 -23 -32 -62 -19 -62 6 0 11 4 11 9 0 4 11 20 25 35 13 14 19
26 14 26 -6 0 -7 5 -4 10 4 6 11 7 17 4 7 -5 9 2 4 19 -3 14 -2 28 3 31 8 5
14 76 7 76 -2 0 -10 -8 -18 -17z m-4 -47 c-3 -9 -10 -16 -15 -16 -5 0 -4 9 3
20 14 22 21 20 12 -4z"/>
<path d="M4108 4359 c-2 -5 -10 -11 -18 -12 -25 -4 -39 -17 -34 -31 3 -7 -12
-29 -33 -49 -37 -37 -61 -49 -47 -24 4 7 3 9 -2 4 -5 -5 -9 -14 -9 -20 0 -7
-11 -11 -25 -10 l-25 3 24 -10 c18 -8 26 -7 32 1 4 7 13 8 20 4 8 -5 11 -5 7
0 -11 11 60 58 74 49 8 -5 9 -2 5 10 -5 14 -3 17 8 13 8 -4 17 -1 21 5 4 6 3
8 -3 5 -6 -4 -18 2 -27 12 -10 11 -13 22 -8 25 5 3 12 -3 15 -13 4 -15 13 -18
41 -16 52 3 58 15 8 15 -23 0 -42 4 -42 9 0 14 37 24 52 15 9 -6 9 -3 -1 9
-15 19 -28 22 -33 6z"/>
<path d="M4035 4350 c-4 -6 -10 -8 -15 -5 -13 8 -52 -34 -44 -46 4 -7 -1 -9
-13 -5 -12 4 -25 1 -32 -8 -7 -8 -34 -23 -59 -32 -45 -17 -156 -84 -138 -84 4
0 20 8 34 19 26 17 55 30 77 32 6 0 17 7 25 14 20 18 76 32 66 16 -5 -8 -1 -8
18 1 14 6 26 15 26 19 0 4 10 9 23 11 14 2 22 10 22 23 0 11 -6 19 -13 17 -8
-1 -11 2 -7 7 3 6 12 8 19 5 7 -3 16 2 19 10 7 18 2 21 -8 6z m-15 -46 c0 -2
-9 -4 -21 -4 -11 0 -18 4 -14 10 5 8 35 3 35 -6z m-54 -26 c4 -7 3 -8 -4 -4
-7 4 -12 2 -12 -4 0 -6 -5 -8 -10 -5 -11 7 -4 25 10 25 5 0 12 -5 16 -12z"/>
<path d="M3172 4320 c0 -14 2 -19 5 -12 2 6 2 18 0 25 -3 6 -5 1 -5 -13z"/>
<path d="M3260 4302 c0 -22 4 -32 12 -30 18 6 20 22 3 43 -14 19 -14 18 -15
-13z"/>
<path d="M2710 4301 c0 -5 5 -13 10 -16 6 -3 10 -2 10 4 0 5 -4 13 -10 16 -5
3 -10 2 -10 -4z"/>
<path d="M2781 4294 c0 -11 3 -14 6 -6 3 7 2 16 -1 19 -3 4 -6 -2 -5 -13z"/>
<path d="M3400 4291 c-13 -25 -13 -34 1 -25 6 3 15 0 20 -7 6 -9 9 -10 9 -2 0
6 -4 14 -10 18 -5 3 -7 12 -3 20 8 22 -5 18 -17 -4z"/>
<path d="M3689 4308 c-5 -16 -4 -46 2 -42 4 2 7 13 6 24 -1 17 -5 26 -8 18z"/>
<path d="M3218 4275 c-6 -30 -3 -43 8 -33 3 4 4 19 2 35 l-3 28 -7 -30z"/>
<path d="M3875 4280 c-3 -6 1 -7 9 -4 18 7 21 14 7 14 -6 0 -13 -4 -16 -10z"/>
<path d="M4190 4280 c-13 -8 -13 -10 2 -10 9 0 20 5 23 10 8 13 -5 13 -25 0z"/>
<path d="M4347 4279 c7 -7 15 -10 18 -7 3 3 -2 9 -12 12 -14 6 -15 5 -6 -5z"/>
<path d="M2807 4251 c-4 -18 -1 -41 8 -58 13 -25 15 -26 15 -6 0 12 -4 25 -10
28 -16 10 -12 25 5 19 8 -3 17 -21 21 -40 3 -19 10 -37 15 -39 12 -8 -21 98
-35 113 -11 11 -14 8 -19 -17z"/>
<path d="M2855 4270 c3 -5 8 -10 11 -10 2 0 4 5 4 10 0 6 -5 10 -11 10 -5 0
-7 -4 -4 -10z"/>
<path d="M4320 4270 c0 -5 5 -10 11 -10 5 0 7 5 4 10 -3 6 -8 10 -11 10 -2 0
-4 -4 -4 -10z"/>
<path d="M3366 4254 c-9 -23 -7 -54 3 -54 5 0 9 16 8 35 -1 39 -2 42 -11 19z"/>
<path d="M4157 4235 c-20 -14 -37 -28 -37 -31 0 -6 62 27 70 37 3 3 12 9 20
12 13 5 13 6 0 6 -9 1 -32 -10 -53 -24z"/>
<path d="M3385 4240 c-3 -5 -1 -10 4 -10 6 0 11 5 11 10 0 6 -2 10 -4 10 -3 0
-8 -4 -11 -10z"/>
<path d="M3624 4213 c-9 -33 -4 -33 29 -2 l29 27 -26 0 c-19 0 -28 -7 -32 -25z"/>
<path d="M4079 4232 c9 -7 10 -11 2 -15 -7 -4 -8 -5 -1 -3 16 2 14 20 -2 24
-10 3 -10 2 1 -6z"/>
<path d="M3865 4220 c-4 -6 -11 -8 -16 -5 -5 4 -9 2 -9 -3 0 -5 -10 -14 -22
-20 -13 -6 -18 -11 -13 -11 6 -1 28 10 50 24 22 13 35 25 28 25 -6 0 -15 -5
-18 -10z"/>
<path d="M4348 4213 c7 -3 16 -2 19 1 4 3 -2 6 -13 5 -11 0 -14 -3 -6 -6z"/>
<path d="M2380 4208 c0 -14 51 -108 63 -115 8 -4 7 -1 -1 10 -8 9 -11 21 -8
26 4 5 1 13 -5 16 -6 4 -19 21 -30 39 -10 17 -19 28 -19 24z"/>
<path d="M3701 4188 l-14 -23 24 20 c13 11 26 21 28 22 2 2 -2 3 -10 3 -8 0
-20 -10 -28 -22z"/>
<path d="M4165 4200 c-24 -9 -52 -40 -37 -40 5 0 15 7 22 15 7 8 21 15 31 15
11 0 19 5 19 10 0 12 -7 12 -35 0z"/>
<path d="M4256 4202 c-3 -5 1 -9 9 -9 8 0 12 4 9 9 -3 4 -7 8 -9 8 -2 0 -6 -4
-9 -8z"/>
<path d="M4027 4189 c-9 -5 -21 -8 -25 -5 -5 3 -9 -1 -9 -9 0 -11 6 -11 31 2
17 8 33 17 35 19 9 8 -15 3 -32 -7z"/>
<path d="M4306 4188 c3 -4 9 -8 15 -8 5 0 9 4 9 8 0 5 -7 9 -15 9 -8 0 -12 -4
-9 -9z"/>
<path d="M3371 4154 c0 -11 3 -14 6 -6 3 7 2 16 -1 19 -3 4 -6 -2 -5 -13z"/>
<path d="M3415 4161 c-3 -5 -1 -12 5 -16 5 -3 10 1 10 9 0 18 -6 21 -15 7z"/>
<path d="M3605 4159 c-4 -6 -5 -12 -2 -15 2 -3 7 2 10 11 7 17 1 20 -8 4z"/>
<path d="M3667 4128 c-31 -31 -31 -32 -2 -8 16 14 34 28 40 32 5 5 6 8 2 8 -4
0 -22 -15 -40 -32z"/>
<path d="M4025 4121 c-4 -7 1 -8 11 -4 13 5 16 3 11 -10 -7 -19 1 -21 23 -7
17 10 14 15 -17 24 -12 4 -24 2 -28 -3z"/>
<path d="M4078 4073 c6 -2 18 -2 25 0 6 3 1 5 -13 5 -14 0 -19 -2 -12 -5z"/>
<path d="M2800 4058 c0 -4 7 -8 15 -8 8 0 15 4 15 8 0 5 -7 9 -15 9 -8 0 -15
-4 -15 -9z"/>
<path d="M2270 4040 c8 -5 20 -10 25 -10 6 0 3 5 -5 10 -8 5 -19 10 -25 10 -5
0 -3 -5 5 -10z"/>
<path d="M3764 4021 c4 -6 0 -14 -8 -17 -18 -7 -22 -34 -4 -34 6 0 8 3 5 7 -4
3 0 14 9 24 12 13 12 19 3 25 -8 4 -10 3 -5 -5z"/>
<path d="M580 3980 c0 -6 11 -15 24 -20 14 -5 36 -29 50 -53 42 -70 66 -88
132 -93 72 -7 101 -19 136 -59 18 -20 30 -27 37 -20 16 16 -9 97 -37 119 -13
10 -28 29 -32 42 -8 20 -17 24 -52 26 -24 0 -51 0 -62 -1 -10 0 -24 3 -30 8
-6 5 -32 12 -58 16 -38 6 -48 11 -48 26 0 14 -7 19 -30 19 -16 0 -30 -5 -30
-10z"/>
<path d="M3690 3960 c0 -5 7 -10 15 -10 8 0 15 5 15 10 0 6 -7 10 -15 10 -8 0
-15 -4 -15 -10z"/>
<path d="M2781 3924 c0 -11 3 -14 6 -6 3 7 2 16 -1 19 -3 4 -6 -2 -5 -13z"/>
<path d="M2820 3900 c0 -19 3 -21 12 -12 9 9 9 15 0 24 -9 9 -12 7 -12 -12z"/>
<path d="M2760 3881 c0 -5 5 -13 10 -16 6 -3 10 -2 10 4 0 5 -4 13 -10 16 -5
3 -10 2 -10 -4z"/>
<path d="M2670 3806 c0 -16 -27 -29 -35 -17 -6 11 -45 2 -45 -10 0 -5 -7 -9
-15 -9 -8 0 -15 -5 -15 -11 0 -7 -12 -8 -32 -4 -25 5 -29 4 -18 -4 12 -9 7
-11 -20 -9 -19 1 -39 5 -45 9 -5 3 -26 9 -45 12 -19 3 -44 7 -55 9 -12 2 -19
-2 -17 -10 1 -8 -2 -11 -9 -6 -12 7 -31 -15 -23 -28 3 -4 16 -8 30 -8 13 0 24
-4 24 -10 0 -5 3 -9 8 -9 20 3 23 -3 11 -18 -10 -11 -10 -14 -2 -9 7 4 22 9
34 11 18 4 19 2 7 -12 -11 -14 -10 -15 9 -9 19 6 21 4 18 -14 -2 -11 0 -18 6
-15 5 4 9 1 9 -6 0 -8 3 -9 14 0 11 9 13 5 12 -19 -1 -27 -2 -28 -13 -13 -7 9
-13 13 -13 9 0 -5 -6 -4 -13 2 -9 8 -12 4 -12 -18 -1 -22 2 -27 12 -18 9 7 22
7 43 0 24 -9 31 -8 40 6 8 15 9 15 10 -3 l1 -20 9 20 c5 11 9 14 9 8 1 -18 26
-16 41 2 10 12 10 15 -1 15 -11 0 -11 2 1 10 8 5 11 10 7 10 -4 0 5 13 20 28
15 16 35 38 43 50 8 12 24 22 35 22 12 0 27 6 34 13 6 6 15 12 19 12 20 2 52
18 52 26 0 11 -22 7 -32 -6 -4 -6 -8 -2 -8 8 0 9 -6 18 -12 19 -7 0 -17 2 -23
2 -5 1 -20 7 -32 14 -19 11 -23 10 -23 -2z"/>
<path d="M2236 3801 c-4 -5 3 -7 14 -4 23 6 26 13 6 13 -8 0 -17 -4 -20 -9z"/>
<path d="M2303 3793 c4 -3 -10 -17 -31 -29 -42 -27 -25 -33 19 -7 29 17 39 43
17 43 -6 0 -8 -3 -5 -7z"/>
<path d="M2193 3782 c-13 -2 -23 -6 -23 -10 0 -12 50 -31 56 -21 3 5 2 9 -3 8
-20 -3 -27 2 -13 11 19 11 11 17 -17 12z"/>
<path d="M3197 3708 c-7 -4 -10 -8 -7 -9 3 0 13 -2 22 -4 9 -2 22 3 28 10 9
11 7 14 -10 12 -11 -1 -26 -5 -33 -9z"/>
<path d="M3825 3690 c3 -5 11 -10 16 -10 6 0 7 5 4 10 -3 6 -11 10 -16 10 -6
0 -7 -4 -4 -10z"/>
<path d="M3111 3654 c0 -11 3 -14 6 -6 3 7 2 16 -1 19 -3 4 -6 -2 -5 -13z"/>
<path d="M3325 3660 c-7 -12 22 -12 50 0 17 7 15 9 -12 9 -17 1 -35 -3 -38 -9z"/>
<path d="M2911 3634 c0 -11 3 -14 6 -6 3 7 2 16 -1 19 -3 4 -6 -2 -5 -13z"/>
<path d="M3368 3613 c7 -3 16 -2 19 1 4 3 -2 6 -13 5 -11 0 -14 -3 -6 -6z"/>
<path d="M831 3430 c-12 -38 -20 -74 -16 -80 24 -40 10 -223 -18 -217 -7 1
-13 -10 -15 -24 -2 -20 5 -32 33 -54 33 -24 40 -26 60 -15 13 7 37 10 53 7 23
-5 36 0 61 22 17 15 31 32 31 37 0 12 25 45 63 84 15 16 27 36 27 44 0 9 11
34 25 56 26 41 32 88 15 120 -7 13 -26 21 -67 26 -31 4 -85 20 -119 35 -98 45
-107 42 -133 -41z"/>
<path d="M3128 3133 c-3 -13 -2 -23 3 -23 5 0 9 -14 9 -31 0 -27 -2 -30 -15
-19 -9 7 -17 11 -18 9 -1 -2 -9 -16 -17 -31 -7 -16 -18 -28 -23 -28 -5 0 -4 7
3 15 11 13 8 15 -18 15 -16 0 -35 -7 -43 -16 -7 -9 -22 -14 -36 -11 -13 2 -23
1 -23 -3 0 -4 -20 -17 -45 -29 -25 -12 -45 -25 -45 -30 0 -4 -9 -18 -20 -31
-22 -26 -26 -45 -9 -55 5 -4 9 -17 8 -28 -4 -29 10 -67 23 -67 5 0 7 -7 4 -16
-4 -9 6 -34 24 -60 16 -25 30 -57 30 -72 0 -15 -4 -22 -8 -16 -4 6 -17 14 -29
18 -19 6 -23 4 -23 -13 0 -13 7 -21 18 -21 9 0 13 -4 7 -8 -15 -11 -19 -46 -5
-37 7 4 15 3 19 -2 3 -6 16 -13 29 -17 17 -6 22 -3 22 11 0 14 2 15 9 4 9 -15
4 -41 -7 -39 -20 2 -32 -3 -27 -12 4 -7 -2 -9 -19 -4 -16 4 -26 2 -26 -5 0
-15 -27 -14 -33 2 -3 6 -6 3 -6 -9 -1 -11 -11 -29 -22 -40 -22 -19 -22 -19
-14 6 8 24 7 24 -17 8 -14 -9 -35 -14 -47 -11 -33 8 -40 -25 -10 -48 20 -15
26 -16 34 -5 6 7 21 17 35 21 14 4 34 15 44 24 18 15 19 15 13 -1 -9 -25 9
-22 27 4 15 21 16 21 29 4 10 -14 23 -17 65 -14 39 3 52 1 52 -9 0 -10 5 -11
18 -5 19 11 51 10 70 -2 8 -5 12 0 12 15 0 20 1 21 18 7 21 -19 72 -21 79 -3
3 10 13 11 35 5 23 -7 29 -6 25 5 -5 10 1 11 23 5 24 -7 28 -6 23 7 -5 13 -3
13 15 4 12 -6 27 -20 35 -32 19 -26 32 -8 17 22 -10 19 -10 20 8 10 18 -10 37
-38 34 -52 -1 -8 61 -8 73 1 12 8 55 6 107 -4 37 -8 37 -8 21 -32 -22 -34 -8
-42 22 -14 29 28 33 15 5 -18 -26 -31 -81 -47 -93 -27 -12 21 -53 18 -70 -5
-8 -11 -17 -17 -20 -14 -3 4 -9 -5 -13 -20 -3 -14 -12 -26 -20 -26 -8 0 -14
-7 -14 -15 0 -18 14 -19 41 -4 19 10 19 9 9 -10 -12 -23 -8 -26 20 -11 21 12
33 0 24 -24 -5 -12 -10 -13 -25 -5 -15 7 -19 6 -19 -5 0 -9 -7 -12 -20 -9 -11
3 -20 13 -20 22 0 10 -3 12 -8 5 -4 -6 -14 -14 -22 -17 -12 -4 -11 -6 3 -6 23
-1 22 -18 -3 -26 -22 -7 -58 9 -42 19 15 9 2 48 -15 42 -8 -3 -11 -2 -8 3 3 5
1 12 -5 16 -6 3 -10 -4 -10 -17 0 -20 -2 -19 -16 10 -9 17 -19 32 -23 32 -3 0
-18 -11 -31 -23 -31 -29 -80 -44 -80 -24 0 14 -37 17 -58 4 -7 -5 -22 -8 -35
-7 -43 4 -57 0 -57 -16 0 -8 -4 -12 -10 -9 -6 4 -10 -8 -10 -28 0 -38 -26 -74
-53 -74 -12 0 -14 4 -7 11 14 14 12 26 -5 26 -11 0 -15 11 -15 43 0 30 -6 49
-18 60 -27 25 -31 22 -35 -30 l-3 -48 -2 48 c-2 40 -5 48 -19 45 -10 -2 -19
-11 -21 -21 -2 -10 2 -16 10 -15 9 2 13 -8 14 -30 1 -19 7 -38 14 -42 7 -4 10
-14 8 -21 -4 -13 -29 7 -56 47 -11 15 -12 16 -8 2 12 -39 -58 -68 -159 -67
l-60 1 55 14 c30 8 69 18 85 23 31 8 32 12 19 79 -3 17 -11 32 -16 32 -6 0 -5
7 2 15 15 19 7 28 -37 43 -28 9 -35 8 -58 -14 -29 -26 -40 -31 -30 -11 4 6 -3
1 -14 -13 -11 -14 -21 -20 -21 -15 0 6 5 16 12 23 7 7 8 12 4 12 -5 0 -2 8 5
17 12 15 12 16 -1 8 -8 -5 -21 -10 -29 -12 -18 -2 -36 -21 -28 -29 4 -4 15 -1
24 7 16 11 16 10 0 -7 -18 -18 -20 -18 -30 -2 -10 15 -13 14 -31 -11 -12 -16
-25 -29 -31 -31 -5 -2 -18 -5 -28 -8 -13 -3 -17 -12 -15 -31 2 -19 -6 -34 -30
-57 -19 -18 -30 -34 -25 -37 5 -3 23 8 41 24 33 31 45 29 16 -2 -10 -11 -12
-19 -5 -24 6 -3 11 -2 11 3 0 6 7 12 15 15 11 5 13 0 8 -23 -3 -19 -1 -30 6
-30 6 0 11 6 11 13 1 6 6 3 13 -8 14 -23 68 -28 88 -8 7 7 22 13 33 13 21 -1
21 -1 1 -11 -24 -13 -75 -68 -75 -80 0 -5 -7 -9 -15 -9 -8 0 -15 -4 -15 -9 0
-5 -12 -12 -27 -14 l-28 -4 30 -1 c28 -2 39 3 94 36 12 7 21 8 21 3 0 -15 -49
-61 -65 -61 -8 0 -15 -7 -15 -15 0 -8 6 -15 14 -15 8 0 16 7 20 15 3 8 11 15
18 15 9 0 9 -3 -2 -11 -13 -9 -13 -10 0 -6 8 2 14 10 12 17 -2 8 3 10 13 6 11
-4 14 -2 9 6 -5 8 -2 9 10 5 9 -4 15 -3 12 2 -3 4 7 14 22 22 15 7 39 22 55
32 29 20 33 17 16 -14 -5 -11 -14 -17 -19 -14 -5 3 -12 0 -16 -6 -4 -7 -3 -9
3 -6 12 8 26 -20 18 -34 -4 -5 1 -6 9 -3 21 8 29 34 8 27 -9 -3 0 11 21 31 27
25 45 35 57 31 20 -6 37 -42 26 -53 -12 -11 48 -30 62 -19 11 8 12 5 7 -19 -4
-16 -8 -35 -11 -42 -2 -7 1 -10 6 -7 6 3 13 24 16 46 4 22 10 42 15 45 5 3 6
-2 3 -10 -3 -9 -3 -24 2 -33 10 -23 12 -73 2 -67 -4 3 -8 2 -8 -3 0 -4 -14
-24 -30 -43 -35 -41 -38 -54 -10 -47 11 3 20 1 20 -4 0 -5 -4 -9 -10 -9 -5 0
-10 -5 -10 -11 0 -5 6 -7 13 -3 8 5 8 2 -2 -9 -8 -11 -9 -17 -3 -17 6 0 16 9
22 20 13 23 40 27 40 5 0 -8 -3 -15 -7 -15 -14 0 -42 -59 -30 -63 6 -2 -4 -9
-21 -16 -18 -8 -32 -17 -32 -22 0 -14 18 -11 23 4 2 6 8 8 13 4 5 -5 1 -14 -8
-21 -10 -7 -16 -16 -13 -20 3 -3 -1 -2 -7 4 -18 15 -28 12 -22 -5 7 -17 -7
-20 -23 -4 -8 8 -17 6 -31 -7 -29 -24 -19 -33 27 -24 27 5 42 3 45 -4 3 -7 10
-4 17 8 6 10 19 26 29 36 12 12 14 22 9 33 -7 12 -4 17 13 23 30 9 46 26 40
43 -3 8 0 11 6 7 6 -3 17 2 24 11 7 10 24 24 37 31 21 13 23 12 17 -3 -3 -9
-6 -19 -6 -21 0 -3 -5 -2 -11 2 -12 7 -62 -44 -54 -56 2 -4 14 -6 27 -4 13 1
27 3 31 3 5 1 5 6 2 11 -4 6 -11 8 -16 5 -5 -3 -6 1 -3 10 5 11 10 13 19 5 10
-8 15 -8 18 2 2 7 2 2 0 -11 -4 -22 -2 -23 12 -11 15 12 17 12 15 -5 -4 -35
-1 -40 25 -41 20 -2 26 4 35 35 5 20 10 41 10 47 0 7 6 14 14 17 9 4 15 -6 20
-31 3 -21 1 -38 -4 -40 -6 -2 -10 -9 -10 -15 0 -8 3 -8 11 0 6 6 17 10 23 8 6
-2 21 9 34 26 13 16 18 29 12 29 -6 0 -9 4 -5 10 3 5 12 7 20 3 11 -4 13 -1 9
11 -3 9 -9 16 -14 16 -4 0 -12 10 -18 23 l-11 22 0 -22 c-1 -12 5 -23 12 -26
7 -2 8 -8 3 -13 -5 -5 -11 -4 -13 4 -3 6 -11 12 -18 12 -8 0 -17 6 -21 13 -4
6 -4 9 1 5 13 -12 37 44 31 73 -3 15 -1 39 4 55 4 16 9 21 9 12 1 -9 6 -20 12
-24 9 -5 10 2 5 22 l-6 29 16 -30 c12 -20 13 -30 5 -33 -6 -2 -9 -8 -6 -12 3
-5 0 -18 -7 -29 -9 -15 -9 -25 -1 -43 11 -23 12 -22 12 7 1 19 4 25 9 17 5 -6
7 13 6 43 -1 35 2 53 8 49 6 -4 7 -20 4 -37 -4 -20 -3 -28 3 -22 5 6 11 26 14
45 2 19 3 -1 3 -44 0 -44 -2 -74 -4 -68 -8 26 -22 10 -22 -26 0 -27 -9 -50
-31 -80 -30 -42 -26 -52 12 -31 14 7 18 16 14 30 -4 11 -2 19 4 19 6 0 11 7
11 16 0 14 3 14 15 4 12 -10 15 -9 15 6 0 15 5 13 21 -11 l21 -30 -5 27 c-3
19 1 28 12 30 12 3 16 16 16 57 0 33 5 56 12 58 9 3 11 -7 8 -31 -3 -20 0 -36
5 -36 5 0 8 -13 6 -30 -2 -20 2 -30 13 -33 10 -3 6 -5 -8 -6 -27 -1 -21 -13 9
-18 14 -2 20 3 20 17 0 17 2 19 14 8 10 -9 11 -17 4 -25 -8 -10 -6 -13 6 -13
9 0 16 7 16 16 0 9 4 14 8 12 18 -7 82 -86 82 -101 0 -8 17 -22 38 -30 30 -13
34 -17 19 -22 -10 -4 -29 -3 -43 3 -26 12 -32 4 -12 -16 9 -9 7 -12 -11 -12
-14 0 -21 -5 -18 -12 2 -7 10 -12 16 -10 6 1 11 -2 11 -8 0 -5 -6 -10 -12 -11
-7 0 -4 -4 6 -8 10 -4 42 -1 70 6 52 13 91 9 80 -8 -3 -6 3 -13 15 -16 11 -3
18 -10 15 -15 -8 -13 4 -58 16 -58 5 0 17 16 26 35 20 43 28 45 22 5 -5 -34 6
-39 22 -10 14 25 27 25 35 0 3 -11 13 -20 21 -20 8 0 14 -4 14 -10 0 -5 6 -10
13 -10 6 0 21 -7 31 -15 18 -14 17 -15 -22 -15 -36 0 -44 4 -52 24 -7 18 -14
22 -34 19 -25 -5 -43 -34 -31 -52 3 -5 1 -12 -5 -16 -5 -3 -10 -14 -10 -23 -1
-9 -20 -31 -43 -48 -37 -27 -43 -37 -45 -73 -3 -46 8 -52 48 -24 14 10 26 17
28 15 10 -9 31 2 35 18 3 11 14 20 25 20 11 0 25 6 31 14 10 12 8 14 -11 10
-18 -3 -17 -2 5 7 15 6 27 16 27 22 0 7 9 18 20 25 24 15 26 42 3 42 -9 0 -13
3 -10 7 4 3 22 -2 41 -12 33 -18 34 -18 64 3 16 12 35 22 41 22 6 0 11 5 11
10 0 6 7 10 15 10 8 0 15 6 15 13 0 7 12 18 28 24 28 13 63 34 72 44 3 3 13 9
23 12 11 4 21 16 24 27 4 16 8 18 19 9 11 -9 14 -9 14 0 0 7 5 9 10 6 6 -3 10
-1 10 4 0 16 33 51 47 51 23 0 64 24 59 35 -2 7 5 11 17 10 25 -3 48 8 71 31
12 11 16 12 16 2 0 -10 3 -9 10 2 7 11 10 11 10 2 0 -7 5 -10 10 -7 6 3 10 17
10 30 0 15 7 26 20 30 17 6 25 23 21 48 0 4 5 7 11 7 9 0 8 4 -2 10 -20 13
-33 13 -25 0 3 -5 2 -10 -4 -10 -5 0 -11 6 -14 13 -3 9 -7 9 -20 -2 -15 -12
-17 -11 -17 8 0 11 -4 21 -10 21 -5 0 -10 -6 -10 -14 0 -11 -7 -13 -27 -7 -38
10 -63 7 -99 -12 -30 -16 -31 -15 -45 9 -9 17 -10 28 -3 32 6 4 14 15 17 25 4
11 16 21 27 24 11 3 18 9 15 13 -9 15 -43 -2 -49 -24 -3 -13 -16 -28 -28 -34
-13 -6 -17 -11 -10 -11 17 -1 15 -21 -2 -21 -24 0 -38 -26 -22 -39 15 -13 11
-40 -7 -52 -6 -4 -6 -15 -2 -25 8 -18 8 -18 12 -1 3 9 9 17 14 17 6 0 5 -10
-2 -22 -21 -39 -55 -66 -43 -34 3 8 -1 27 -9 42 l-15 28 -7 -32 c-3 -18 -11
-30 -16 -26 -5 3 -9 0 -9 -5 0 -6 -9 -11 -20 -11 -11 0 -20 -5 -20 -11 0 -13
39 -2 61 18 15 12 17 11 22 -9 4 -13 2 -25 -3 -26 -6 -2 -8 -8 -5 -12 10 -16
-12 -20 -25 -5 -10 12 -15 12 -38 -3 -25 -16 -26 -16 -19 1 7 20 0 21 -40 7
-27 -10 -27 -9 -8 6 14 12 16 18 7 21 -10 4 -10 8 0 20 11 13 8 13 -24 0 -30
-13 -39 -13 -48 -3 -7 10 -6 17 4 25 27 23 12 46 -30 48 l-39 1 35 -8 c19 -4
31 -8 25 -9 -5 -1 -3 -6 5 -11 41 -27 -28 -5 -115 37 -17 7 -39 11 -48 7 -10
-3 -17 -1 -17 5 0 16 56 14 90 -4 17 -9 31 -11 35 -6 3 5 21 7 39 4 24 -4 42
0 60 13 26 19 36 49 14 41 -7 -2 -12 -10 -10 -16 1 -6 -5 -11 -14 -11 -9 0
-12 5 -8 12 5 7 3 8 -7 2 -26 -16 -72 -13 -97 7 -14 10 -34 19 -46 19 -20 0
-20 1 4 20 14 11 32 19 40 19 33 -3 50 2 50 12 0 7 -10 9 -27 5 -24 -5 -25 -5
-9 5 10 6 34 13 53 14 19 2 37 6 40 9 8 7 -7 26 -20 26 -7 0 -6 -4 3 -11 11
-8 7 -9 -18 -5 -20 4 -31 2 -27 -4 3 -6 -4 -10 -17 -10 -13 0 -30 -6 -37 -12
-10 -11 -11 -10 -6 5 7 18 -4 23 -21 10 -5 -5 -1 0 10 10 10 9 27 15 36 12 25
-8 50 4 43 21 -3 8 1 14 11 14 9 0 16 7 16 15 0 8 5 15 10 15 6 0 20 9 32 20
12 11 28 20 35 20 8 0 11 5 8 10 -3 6 0 10 8 10 8 0 17 6 20 14 3 7 28 16 56
20 43 6 49 9 46 27 -4 17 0 20 18 15 35 -8 245 56 275 84 l25 25 -22 3 c-12 2
-28 -2 -36 -8 -8 -6 -44 -12 -81 -12 -42 -1 -60 -4 -48 -9 16 -6 15 -8 -7 -8
-15 -1 -40 -8 -55 -16 -16 -8 -42 -15 -57 -15 -15 0 -30 -6 -33 -14 -3 -8 -13
-17 -21 -20 -13 -5 -14 -4 -3 9 11 13 9 15 -16 12 -16 -2 -30 -6 -31 -10 -1
-4 -9 -15 -18 -23 -8 -9 -13 -20 -10 -25 4 -5 -1 -6 -10 -3 -14 6 -14 8 0 24
13 14 13 19 3 23 -11 4 -11 6 0 6 7 1 20 8 29 16 8 9 23 13 33 10 15 -5 17 -2
13 17 -5 23 -5 23 10 3 13 -17 18 -18 29 -6 11 12 10 13 -5 8 -11 -4 -16 -3
-12 3 3 6 18 10 33 10 15 0 36 7 46 15 11 8 25 15 30 15 6 0 4 -4 -4 -10 -8
-5 -11 -12 -7 -16 4 -4 13 -2 19 4 7 7 24 12 39 12 15 0 35 7 43 16 15 15 33
21 64 23 6 1 12 8 12 16 0 8 6 15 14 15 7 0 16 9 19 20 7 26 -12 26 -60 -2
-29 -16 -55 -22 -111 -22 -62 -1 -70 1 -55 12 16 11 16 14 3 22 -8 5 -22 10
-30 11 -10 0 -9 3 5 10 16 7 13 8 -13 4 -27 -4 -33 -2 -30 12 2 9 10 18 18 20
13 4 13 3 0 -6 -12 -8 -8 -11 17 -11 17 0 35 -4 38 -10 3 -5 21 -10 38 -10 23
0 28 3 18 9 -8 5 -21 7 -30 3 -9 -3 -13 -2 -9 3 4 4 18 9 30 10 13 2 42 8 65
13 23 5 44 7 48 4 3 -3 5 0 5 6 0 7 -6 12 -12 13 -7 0 -3 5 10 11 27 13 29 28
4 28 -11 0 -27 9 -37 20 -16 18 -16 20 -2 20 10 0 17 5 17 10 0 6 6 10 13 10
19 1 63 38 54 47 -5 4 -12 2 -16 -6 -5 -7 -14 -11 -22 -10 -20 4 -60 -11 -55
-20 3 -4 -11 -16 -31 -25 -31 -15 -35 -15 -24 -2 8 9 20 16 29 16 8 0 12 3 9
6 -4 4 3 16 16 27 l22 19 -24 -7 c-13 -4 -29 -8 -35 -9 -6 -1 -21 -7 -33 -14
-12 -7 -30 -12 -40 -11 -14 0 -12 3 7 11 15 6 20 12 12 15 -6 3 -10 9 -7 14 3
4 -5 11 -19 15 -14 3 -30 12 -37 20 -8 10 -15 11 -24 4 -9 -8 -15 -8 -20 0 -8
13 -45 13 -45 -1 0 -11 -41 -2 -50 11 -3 4 -13 -3 -23 -16 -10 -14 -15 -23
-10 -22 4 2 19 -5 33 -15 16 -11 19 -17 9 -17 -8 0 -20 5 -26 11 -17 17 -37 1
-22 -17 14 -17 9 -17 -28 -3 -15 7 -41 11 -56 10 -20 -1 -26 2 -21 10 5 8 3 9
-5 4 -9 -5 -9 -11 -3 -17 6 -6 8 -17 5 -25 -5 -11 -8 -12 -14 -2 -9 15 -46 22
-54 10 -3 -6 -21 -7 -40 -4 -26 4 -35 2 -35 -8 -1 -9 -4 -8 -11 4 -8 14 -14
16 -25 6 -16 -13 -9 -33 8 -23 7 4 8 2 4 -5 -13 -20 -50 -8 -62 20 -17 37 -57
43 -84 12 -23 -26 -60 -28 -68 -3 -4 12 -2 13 9 3 18 -18 29 -16 29 3 0 10 6
14 15 11 8 -4 17 -1 21 5 4 7 3 8 -4 4 -16 -9 -15 7 0 22 7 7 9 12 4 12 -4 0
4 11 18 24 15 13 26 31 26 40 0 10 5 14 11 10 7 -4 10 -1 7 7 -5 15 -66 31
-73 18 -3 -4 -21 -5 -40 -2 -26 4 -35 2 -35 -9 0 -7 -10 -14 -21 -15 -12 -1
-26 -6 -32 -12 -6 -6 -19 -6 -33 -1 -14 6 -26 6 -29 0 -3 -5 -19 -5 -37 1 -22
6 -34 5 -39 -2 -4 -7 -18 -9 -33 -5 -28 7 -36 26 -11 26 8 0 14 3 14 8 -5 30
2 43 21 37 11 -3 20 -2 20 3 0 6 -10 12 -23 16 -28 7 -67 39 -67 55 0 6 -4 11
-10 11 -5 0 -10 -4 -10 -10 0 -5 -4 -10 -10 -10 -5 0 -10 8 -10 18 0 10 -6 24
-12 31 -11 11 -10 13 4 8 10 -4 28 -2 40 2 21 8 22 10 5 16 -13 6 -15 10 -7
15 9 5 9 13 2 26 -11 21 6 54 28 54 10 0 10 3 0 15 -9 10 -9 15 -1 15 6 0 11
11 11 24 0 14 4 27 9 31 5 3 9 38 9 78 -1 57 -5 76 -20 90 -14 14 -22 16 -32
8 -10 -8 -16 -8 -25 2 -6 8 -8 17 -4 20 3 4 -8 7 -25 7 -18 0 -41 6 -52 12
-16 10 -25 9 -50 -5 -29 -17 -30 -17 -31 0 0 16 -1 16 -8 -2 l-8 -20 -5 20
c-4 19 -4 19 -10 -2z m212 -113 c0 -5 -4 -10 -10 -10 -5 0 -10 5 -10 10 0 6 5
10 10 10 6 0 10 -4 10 -10z m-366 -221 c-3 -5 -20 -9 -37 -9 l-32 1 24 13 c26
14 55 11 45 -5z m371 -189 c-3 -5 -10 -10 -16 -10 -5 0 -9 5 -9 10 0 6 7 10
16 10 8 0 12 -4 9 -10z m-285 -37 c0 -10 6 -13 16 -9 27 10 37 -5 12 -19 -15
-7 -27 -8 -35 -2 -9 7 -13 5 -13 -7 0 -9 -8 -16 -20 -16 -13 0 -20 7 -20 20 0
11 -5 20 -11 20 -8 0 -8 5 1 15 17 20 32 8 24 -18 -6 -19 -5 -20 10 -5 9 9 16
24 16 33 0 9 5 13 10 10 6 -3 10 -13 10 -22z m100 17 c0 -5 -5 -10 -11 -10 -5
0 -7 5 -4 10 3 6 8 10 11 10 2 0 4 -4 4 -10z m-215 -19 c3 -5 1 -12 -5 -16 -5
-3 -10 1 -10 9 0 18 6 21 15 7z m369 -21 c4 0 5 4 1 9 -9 16 12 22 25 6 18
-22 4 -33 -32 -26 -22 4 -34 14 -37 26 -3 19 -2 19 16 3 11 -10 23 -18 27 -18z
m-114 6 c0 -9 -7 -12 -20 -9 -11 3 -17 9 -14 14 8 14 34 10 34 -5z m44 8 c25
-10 19 -24 -9 -22 -25 2 -31 9 -18 21 8 8 8 8 27 1z m536 -173 c0 -5 -11 -11
-25 -13 -24 -5 -32 2 -18 15 9 10 43 8 43 -2z m497 -17 c-3 -3 -12 -4 -19 -1
-8 3 -5 6 6 6 11 1 17 -2 13 -5z m103 -2 c0 -4 -13 -13 -30 -19 -35 -13 -41
-1 -7 15 27 13 37 14 37 4z m-70 -32 c0 -5 -9 -10 -20 -10 -11 0 -20 5 -20 10
0 6 9 10 20 10 11 0 20 -4 20 -10z m-73 -16 c-3 -3 -12 -4 -19 -1 -8 3 -5 6 6
6 11 1 17 -2 13 -5z m46 -11 c-7 -2 -19 -2 -25 0 -7 3 -2 5 12 5 14 0 19 -2
13 -5z m-554 -6 c-2 -1 -13 -9 -24 -17 -19 -14 -19 -14 -6 3 7 9 18 17 24 17
6 0 8 -1 6 -3z m-1195 -105 c-4 -9 -6 -23 -5 -31 1 -7 -2 -10 -7 -7 -6 3 -12
0 -15 -6 -3 -10 -7 -10 -20 1 -22 18 -21 31 1 31 11 0 24 12 32 28 14 29 28
14 14 -16z m1745 4 c-2 -2 -17 -6 -34 -10 -22 -5 -26 -4 -15 4 14 9 59 15 49
6z m-1674 -16 c-3 -5 -12 -10 -18 -10 -7 0 -6 4 3 10 19 12 23 12 15 0z m1562
-6 c-3 -3 -12 -4 -19 -1 -8 3 -5 6 6 6 11 1 17 -2 13 -5z m-817 -24 c0 -5 -2
-10 -4 -10 -3 0 -8 5 -11 10 -3 6 -1 10 4 10 6 0 11 -4 11 -10z m863 -6 c-7
-3 -9 -13 -6 -22 5 -14 3 -15 -8 -4 -7 6 -24 13 -38 13 -21 1 -20 3 9 9 42 9
60 10 43 4z m47 -14 c0 -5 -7 -10 -15 -10 -8 0 -15 5 -15 10 0 6 7 10 15 10 8
0 15 -4 15 -10z m-1071 -12 c-2 -2 -17 -14 -34 -28 l-30 -25 24 28 c14 15 29
27 34 27 6 0 8 -1 6 -2z m88 -4 c-3 -3 -12 -4 -19 -1 -8 3 -5 6 6 6 11 1 17
-2 13 -5z m913 -5 c0 -7 -36 -19 -60 -19 -8 0 -4 6 10 13 28 15 50 17 50 6z
m-1650 -39 c0 -5 -4 -10 -10 -10 -5 0 -10 5 -10 10 0 6 5 10 10 10 6 0 10 -4
10 -10z m1420 0 c8 -5 11 -10 5 -10 -5 0 -17 5 -25 10 -8 5 -10 10 -5 10 6 0
17 -5 25 -10z m185 -13 c19 -4 19 -5 -1 -6 -12 0 -28 7 -35 17 -12 15 -12 16
1 6 8 -7 24 -14 35 -17z m-1028 7 c-3 -3 -12 -4 -19 -1 -8 3 -5 6 6 6 11 1 17
-2 13 -5z m-49 -11 c-10 -2 -28 -2 -40 0 -13 2 -5 4 17 4 22 1 32 -1 23 -4z
m-514 -17 c-3 -9 -12 -12 -22 -9 -15 6 -9 11 25 22 1 1 0 -5 -3 -13z m1693
-32 c-3 -3 -12 -4 -19 -1 -8 3 -5 6 6 6 11 1 17 -2 13 -5z m-1321 -20 c-9 -8
-16 -22 -16 -30 0 -8 -4 -14 -10 -14 -5 0 -10 -9 -10 -21 0 -11 -4 -17 -10
-14 -14 8 -13 21 3 37 8 7 19 23 26 36 6 12 16 22 22 22 6 0 3 -7 -5 -16z
m1234 -26 c0 -10 -36 7 -45 22 -4 6 5 5 19 -2 14 -6 26 -15 26 -20z m63 25
c-7 -2 -19 -2 -25 0 -7 3 -2 5 12 5 14 0 19 -2 13 -5z m-1129 -140 c-1 -54 -6
-98 -10 -98 -5 0 -8 21 -7 47 2 39 0 46 -12 42 -16 -7 -21 -24 -6 -24 15 0
-11 -72 -36 -103 -13 -16 -23 -24 -23 -18 0 6 -7 11 -16 11 -14 0 -14 2 0 15
8 8 17 24 21 34 3 11 12 22 20 25 8 3 15 13 15 23 0 15 -2 16 -10 3 -5 -8 -10
-10 -10 -4 0 6 9 23 20 37 11 14 20 36 21 49 0 22 1 22 9 3 7 -17 9 -15 9 11
1 24 8 44 15 44 1 0 0 -44 0 -97z m153 50 c-3 -10 -5 -2 -5 17 0 19 2 27 5 18
2 -10 2 -26 0 -35z m267 31 c3 -8 2 -12 -4 -9 -6 3 -10 10 -10 16 0 14 7 11
14 -7z m166 -5 c0 -11 -3 -11 -24 -3 -23 9 -20 23 4 17 11 -3 20 -9 20 -14z
m-14 -42 c8 3 14 0 14 -7 0 -6 -4 -8 -10 -5 -5 3 -10 -1 -10 -9 0 -9 -4 -16
-8 -16 -12 0 -49 29 -38 30 5 0 1 10 -10 23 -10 12 -12 16 -4 10 19 -17 35
-17 21 0 -6 8 -8 17 -4 20 3 4 13 -6 21 -22 8 -19 19 -28 28 -24z m114 -12 c0
-12 -19 -12 -23 0 -4 9 -1 12 9 8 7 -3 14 -7 14 -8z m-800 -16 c0 -5 -4 -9
-10 -9 -5 0 -10 7 -10 16 0 8 5 12 10 9 6 -3 10 -10 10 -16z m855 11 c-3 -5
-14 -10 -23 -10 -15 0 -15 2 -2 10 20 13 33 13 25 0z m-405 -32 c0 -25 -3 -29
-10 -18 -13 20 -13 50 0 50 6 0 10 -15 10 -32z m590 12 c0 -10 -27 -7 -37 5
-4 4 -2 5 5 1 6 -4 12 -2 12 4 0 6 5 8 10 5 6 -3 10 -10 10 -15z m-525 -24
c27 4 55 -28 44 -49 -10 -18 -34 -13 -43 8 -3 9 0 12 10 8 10 -3 12 0 8 10 -6
16 -20 17 -43 3 -9 -6 -12 -5 -8 1 4 6 0 16 -8 23 -8 7 -15 17 -15 23 0 5 8 1
18 -10 9 -11 26 -19 37 -17z m227 25 c8 -1 4 -28 -5 -37 -4 -4 -7 0 -7 9 0 10
-8 17 -17 17 -15 0 -16 -2 -3 -10 8 -5 11 -10 5 -10 -5 0 -1 -7 9 -15 24 -18
16 -19 -18 -4 -14 7 -23 16 -20 20 3 5 0 9 -7 9 -8 0 -9 4 0 13 9 12 21 13 63
8z m-335 -23 c-3 -8 -6 -5 -6 6 -1 11 2 17 5 13 3 -3 4 -12 1 -19z m181 6 c5
3 17 0 26 -7 16 -12 15 -13 -11 -11 -40 2 -40 2 -47 20 -5 14 -4 15 8 5 8 -7
19 -10 24 -7z m202 -29 c0 -2 -9 -3 -19 -2 -11 0 -18 5 -15 9 4 6 34 0 34 -7z
m-610 -40 c5 3 12 0 16 -6 4 -7 3 -9 -3 -6 -6 4 -14 -5 -18 -20 -8 -35 -23
-12 -20 32 4 45 8 53 12 22 2 -15 8 -25 13 -22z m239 2 c1 -5 -3 -5 -9 -2 -5
3 -10 16 -9 28 0 21 1 21 9 2 5 -11 9 -24 9 -28z m-212 11 c-3 -8 -6 -5 -6 6
-1 11 2 17 5 13 3 -3 4 -12 1 -19z m418 12 c3 -6 -1 -7 -9 -4 -18 7 -21 14 -7
14 6 0 13 -4 16 -10z m320 -10 c3 -5 1 -10 -4 -10 -6 0 -11 5 -11 10 0 6 2 10
4 10 3 0 8 -4 11 -10z m-571 -16 c3 -8 2 -12 -4 -9 -6 3 -10 10 -10 16 0 14 7
11 14 -7z m601 6 c3 -5 1 -10 -4 -10 -6 0 -11 5 -11 10 0 6 2 10 4 10 3 0 8
-4 11 -10z m-395 -13 c0 -2 -9 -12 -20 -22 -19 -17 -20 -17 -20 -1 0 9 4 15 9
11 5 -3 12 -1 16 5 6 10 15 14 15 7z m204 -7 c14 -5 26 -15 26 -21 0 -8 -6 -7
-17 2 -11 10 -14 10 -9 2 4 -8 1 -13 -8 -13 -9 0 -16 -9 -16 -20 0 -11 -5 -20
-11 -20 -6 0 -9 7 -5 15 4 10 -1 15 -14 15 -11 0 -20 -6 -20 -14 0 -14 27 -31
43 -27 5 1 5 -4 2 -10 -5 -7 -11 -7 -17 -1 -5 5 -28 7 -49 5 -34 -5 -38 -3
-33 11 7 19 15 20 34 4 7 -7 3 2 -10 20 l-23 34 49 -7 c38 -5 46 -4 34 5 -12
9 -10 10 10 4 22 -6 23 -5 11 10 -16 19 -12 20 23 6z m96 -5 c0 -2 -6 -5 -13
-8 -8 -3 -14 1 -14 8 0 7 6 11 14 8 7 -3 13 -6 13 -8z m-353 -1 c-3 -4 1 -20
9 -36 17 -33 9 -53 -10 -26 -7 10 -16 15 -20 11 -4 -4 -4 0 0 10 7 20 -6 22
-25 5 -11 -11 -11 -9 0 9 7 12 16 20 20 17 4 -2 10 0 14 6 3 5 9 10 12 10 4 0
4 -3 0 -6z m381 -35 c27 -1 27 -1 -3 -8 -16 -4 -33 -3 -36 2 -3 5 -9 8 -13 8
-23 -3 -36 0 -31 9 4 6 15 6 31 0 14 -6 37 -11 52 -11z m-737 -52 c-16 -24
-28 -47 -26 -51 3 -3 0 -2 -6 3 -7 6 -1 25 18 59 15 28 32 47 37 42 4 -4 -5
-28 -23 -53z m679 32 c0 -4 7 -15 16 -24 15 -15 14 -15 -10 -9 -17 4 -26 2
-26 -6 0 -6 -8 -10 -17 -8 -27 4 -28 -16 -1 -22 16 -4 19 -8 10 -14 -7 -4 -10
-11 -7 -16 3 -5 -4 -19 -15 -30 -17 -17 -24 -19 -36 -9 -22 18 -17 32 10 25
32 -8 41 5 13 19 -12 6 -21 17 -19 23 1 7 -2 12 -8 12 -26 0 -6 20 25 26 21 4
34 11 32 18 -3 6 -10 10 -16 8 -7 -1 -10 2 -7 7 7 11 56 12 56 0z m144 -5 c5
-14 4 -15 -9 -4 -17 14 -19 20 -6 20 5 0 12 -7 15 -16z m-57 0 c-3 -3 -12 -4
-19 -1 -8 3 -5 6 6 6 11 1 17 -2 13 -5z m156 -16 c-2 -5 -10 -8 -18 -8 -8 0
-16 3 -18 8 -3 4 5 7 18 7 13 0 21 -3 18 -7z m484 -20 c-3 -8 -6 -5 -6 6 -1
11 2 17 5 13 3 -3 4 -12 1 -19z m-837 -7 c7 -14 7 -22 -2 -27 -7 -4 -8 -3 -4
5 4 6 0 14 -8 17 -17 7 -22 24 -6 24 5 0 14 -9 20 -19z m280 -31 c10 0 22 -4
25 -10 3 -6 -1 -7 -9 -4 -11 4 -16 0 -16 -11 0 -13 -4 -15 -12 -8 -24 19 -68
25 -68 9 0 -18 -24 -28 -75 -32 l-40 -3 30 14 c17 8 40 14 53 15 24 0 31 20 7
20 -8 0 -15 7 -15 16 0 11 6 14 20 9 15 -5 18 -3 14 10 -6 13 -1 13 30 -4 20
-12 45 -21 56 -21z m-362 23 c-16 -2 -28 -8 -28 -13 0 -5 -7 -7 -15 -4 -25 10
-9 20 32 21 26 0 29 -1 11 -4z m861 -47 c-3 -3 -11 5 -18 17 -13 21 -12 21 5
5 10 -10 16 -20 13 -22z m-799 -30 c0 -3 -4 -8 -10 -11 -5 -3 -10 -1 -10 4 0
6 5 11 10 11 6 0 10 -2 10 -4z m350 -6 c0 -5 -7 -10 -16 -10 -8 0 -12 5 -9 10
3 6 10 10 16 10 5 0 9 -4 9 -10z m28 -31 l-33 -31 28 6 c15 4 27 3 27 -2 0
-15 -58 -13 -64 3 -3 8 -1 15 5 15 5 0 19 9 31 20 12 11 26 20 31 20 4 0 -7
-14 -25 -31z m-115 -3 c34 -16 55 -42 23 -30 -8 3 -29 -2 -48 -12 l-33 -17 23
26 c22 24 16 47 -8 32 -5 -3 -10 1 -10 10 0 9 3 14 8 12 4 -2 24 -11 45 -21z
m-101 -28 c-7 -7 -12 -8 -12 -2 0 14 12 26 19 19 2 -3 -1 -11 -7 -17z m171
-25 c-7 -2 -19 -2 -25 0 -7 3 -2 5 12 5 14 0 19 -2 13 -5z m-111 -65 c-7 -7
-12 -8 -12 -2 0 14 12 26 19 19 2 -3 -1 -11 -7 -17z m-32 -121 c0 -5 -4 -5
-10 -2 -5 3 -10 14 -10 23 0 15 2 15 10 2 5 -8 10 -19 10 -23z m-10 -37 c0 -5
-5 -10 -11 -10 -5 0 -7 5 -4 10 3 6 8 10 11 10 2 0 4 -4 4 -10z m-90 -70 c0
-5 -7 -10 -15 -10 -8 0 -15 5 -15 10 0 6 7 10 15 10 8 0 15 -4 15 -10z"/>
<path d="M3030 3125 c-7 -9 -8 -15 -2 -15 5 0 12 7 16 15 3 8 4 15 2 15 -2 0
-9 -7 -16 -15z"/>
<path d="M488 3081 c-24 -26 -34 -74 -29 -136 1 -6 22 -9 51 -7 42 3 50 7 50
24 0 11 7 32 16 46 18 31 5 82 -21 82 -8 0 -15 5 -15 10 0 18 -25 9 -52 -19z"/>
<path d="M2945 3060 c3 -5 8 -10 11 -10 2 0 4 5 4 10 0 6 -5 10 -11 10 -5 0
-7 -4 -4 -10z"/>
<path d="M888 3033 c6 -2 18 -2 25 0 6 3 1 5 -13 5 -14 0 -19 -2 -12 -5z"/>
<path d="M190 3004 c-1 -60 -74 -162 -107 -150 -7 3 -13 -1 -13 -10 0 -12 -6
-15 -23 -11 -47 12 -48 8 -45 -272 l3 -262 48 42 c26 23 47 47 47 54 0 14 47
49 78 59 12 4 22 12 22 17 0 5 7 9 15 9 8 0 15 4 15 9 0 5 8 7 18 4 12 -3 26
8 45 34 15 21 27 31 27 23 1 -11 4 -10 16 5 8 11 34 24 57 30 36 9 42 14 42
37 1 15 4 30 8 34 11 11 8 74 -5 111 -11 31 -38 46 -38 22 0 -6 -8 -2 -17 10
-10 12 -30 23 -45 25 -16 1 -37 15 -49 30 -12 15 -28 25 -35 22 -16 -6 -20 29
-4 39 18 11 11 31 -25 71 -29 34 -34 36 -35 18z"/>
<path d="M2780 2991 c0 -16 -3 -37 -7 -47 -4 -12 -2 -15 8 -12 15 5 22 88 7
88 -4 0 -8 -13 -8 -29z"/>
<path d="M3821 2676 c12 -10 60 -16 54 -6 -3 5 -18 10 -32 10 -15 0 -24 -2
-22 -4z"/>
<path d="M3785 2630 c-8 -13 5 -13 25 0 13 8 13 10 -2 10 -9 0 -20 -4 -23 -10z"/>
<path d="M4397 2619 c7 -7 15 -10 18 -7 3 3 -2 9 -12 12 -14 6 -15 5 -6 -5z"/>
<path d="M3445 2599 c-4 -6 -5 -13 -2 -16 7 -7 27 6 27 18 0 12 -17 12 -25 -2z"/>
<path d="M3766 2601 c-4 -7 -5 -15 -2 -18 9 -9 19 4 14 18 -4 11 -6 11 -12 0z"/>
<path d="M4449 2598 c-1 -2 -3 -13 -4 -25 -3 -26 13 -31 21 -8 4 8 15 15 26
15 10 0 16 5 13 10 -5 9 -53 15 -56 8z"/>
<path d="M4208 2583 c7 -3 16 -2 19 1 4 3 -2 6 -13 5 -11 0 -14 -3 -6 -6z"/>
<path d="M4288 2573 c7 -3 16 -2 19 1 4 3 -2 6 -13 5 -11 0 -14 -3 -6 -6z"/>
<path d="M4320 2571 c0 -5 10 -11 23 -15 26 -7 77 -7 59 1 -6 2 -10 8 -8 11 2
4 -14 8 -35 10 -21 1 -39 -2 -39 -7z"/>
<path d="M4482 2543 c-6 -3 -9 -9 -6 -14 3 -6 1 -16 -5 -23 -9 -11 -6 -15 14
-18 14 -3 25 -1 25 4 0 5 16 16 36 24 20 8 34 17 31 20 -7 7 -80 13 -95 7z"/>
<path d="M4320 2530 c0 -5 5 -10 11 -10 5 0 7 5 4 10 -3 6 -8 10 -11 10 -2 0
-4 -4 -4 -10z"/>
<path d="M4394 2509 c-3 -6 -19 -9 -35 -5 -31 6 -49 -8 -23 -18 28 -11 49 -6
62 14 7 11 10 20 8 20 -3 0 -8 -5 -12 -11z"/>
<path d="M4424 2475 c-20 -15 -11 -18 20 -6 11 4 15 10 9 14 -5 3 -19 0 -29
-8z"/>
<path d="M4552 2425 c-26 -30 -23 -31 23 -6 27 14 32 20 19 25 -21 8 -17 9
-42 -19z"/>
<path d="M2678 2417 c-3 -15 -2 -27 3 -27 13 0 17 14 9 35 -6 17 -7 16 -12 -8z"/>
<path d="M2800 2380 c-6 -11 -8 -20 -6 -20 3 0 10 9 16 20 6 11 8 20 6 20 -3
0 -10 -9 -16 -20z"/>
<path d="M2837 2387 c-3 -8 0 -14 7 -14 7 0 13 6 13 14 0 7 -4 13 -8 13 -4 0
-9 -6 -12 -13z"/>
<path d="M3583 2379 c1 -10 6 -18 11 -16 16 5 18 24 2 30 -10 4 -14 0 -13 -14z"/>
<path d="M4525 2320 c-3 -6 1 -7 9 -4 18 7 21 14 7 14 -6 0 -13 -4 -16 -10z"/>
<path d="M2457 2306 c-10 -8 -20 -24 -22 -37 -4 -21 -2 -20 25 10 17 18 30 34
30 37 0 8 -15 3 -33 -10z"/>
<path d="M2490 2279 c0 -5 5 -7 10 -4 6 3 10 8 10 11 0 2 -4 4 -10 4 -5 0 -10
-5 -10 -11z"/>
<path d="M3441 2264 c0 -11 3 -14 6 -6 3 7 2 16 -1 19 -3 4 -6 -2 -5 -13z"/>
<path d="M2455 2250 c-16 -18 -16 -18 4 -13 25 6 35 19 22 27 -4 3 -16 -3 -26
-14z"/>
<path d="M2353 2248 c-3 -7 -1 -8 5 -4 7 4 12 2 12 -4 0 -13 21 -9 23 4 3 13
-32 16 -40 4z"/>
<path d="M3381 2251 c-1 -8 -7 -11 -17 -7 -14 5 -15 4 -4 -9 15 -18 36 -5 27
17 -4 11 -6 11 -6 -1z"/>
<path d="M4570 2231 c0 -5 5 -13 10 -16 6 -3 10 -2 10 4 0 5 -4 13 -10 16 -5
3 -10 2 -10 -4z"/>
<path d="M3410 2211 c0 -5 5 -13 10 -16 6 -3 10 -2 10 4 0 5 -4 13 -10 16 -5
3 -10 2 -10 -4z"/>
<path d="M2790 2160 c0 -5 5 -10 10 -10 6 0 10 5 10 10 0 6 -4 10 -10 10 -5 0
-10 -4 -10 -10z"/>
<path d="M2410 2010 c0 -5 5 -10 10 -10 6 0 10 5 10 10 0 6 -4 10 -10 10 -5 0
-10 -4 -10 -10z"/>
<path d="M796 1985 c-3 -8 -26 -20 -52 -27 -33 -9 -49 -19 -55 -37 -5 -13 -8
-25 -7 -26 2 -1 18 -10 36 -19 33 -17 47 -15 47 7 0 6 16 11 35 11 45 1 67 38
47 79 -13 29 -41 36 -51 12z"/>
<path d="M1360 1974 c-9 -22 -14 -25 -39 -19 -17 4 -40 1 -53 -6 -14 -8 -58
-11 -115 -10 -76 1 -94 -1 -99 -14 -3 -8 -10 -13 -14 -10 -4 2 -27 -14 -51
-36 -52 -48 -70 -59 -98 -59 -15 0 -21 -6 -21 -22 0 -33 10 -43 55 -56 22 -5
110 -31 195 -57 142 -43 250 -62 250 -45 0 4 -9 15 -20 25 -11 10 -20 24 -20
32 0 16 22 17 38 1 8 -8 15 -8 27 2 24 20 18 35 -21 54 -25 12 -34 20 -27 27
7 7 24 4 52 -11 37 -18 46 -19 81 -9 22 7 40 15 40 18 0 3 -23 22 -51 41 -66
45 -71 54 -23 45 38 -7 38 -7 21 13 -20 21 -10 36 17 26 9 -3 16 -2 16 3 0 10
-40 38 -56 38 -6 0 -22 13 -36 28 -31 33 -36 34 -48 1z"/>
<path d="M2465 1990 c-3 -5 -2 -10 4 -10 5 0 13 5 16 10 3 6 2 10 -4 10 -5 0
-13 -4 -16 -10z"/>
<path d="M4145 1925 l-30 -13 25 -6 c14 -4 39 -2 55 3 17 5 22 10 13 10 -10 1
-18 6 -18 11 0 13 -7 12 -45 -5z"/>
<path d="M2830 1884 c0 -8 5 -12 10 -9 6 3 10 10 10 16 0 5 -4 9 -10 9 -5 0
-10 -7 -10 -16z"/>
<path d="M4115 1890 c3 -5 8 -10 11 -10 2 0 4 5 4 10 0 6 -5 10 -11 10 -5 0
-7 -4 -4 -10z"/>
<path d="M4230 1835 c0 -8 5 -15 10 -15 6 0 10 7 10 15 0 8 -4 15 -10 15 -5 0
-10 -7 -10 -15z"/>
<path d="M626 1831 c-3 -5 1 -11 9 -14 9 -4 12 -1 8 9 -6 16 -10 17 -17 5z"/>
<path d="M3251 1814 c0 -11 3 -14 6 -6 3 7 2 16 -1 19 -3 4 -6 -2 -5 -13z"/>
<path d="M4320 1820 c-12 -8 -10 -10 8 -10 13 0 20 4 17 10 -7 12 -6 12 -25 0z"/>
<path d="M2686 1803 c-12 -12 -6 -33 9 -33 8 0 15 6 15 14 0 17 -14 28 -24 19z"/>
<path d="M4173 1790 c-13 -5 -23 -11 -23 -12 0 -2 21 -3 48 -4 26 0 39 1 30 3
-10 3 -18 9 -18 14 0 11 -8 11 -37 -1z"/>
<path d="M4875 1790 c-3 -6 1 -7 9 -4 18 7 21 14 7 14 -6 0 -13 -4 -16 -10z"/>
<path d="M4697 1765 c-4 -8 -2 -17 3 -20 6 -4 10 3 10 14 0 25 -6 27 -13 6z"/>
<path d="M2820 1760 c-8 -5 -10 -10 -5 -10 6 0 17 5 25 10 8 5 11 10 5 10 -5
0 -17 -5 -25 -10z"/>
<path d="M4086 1756 c3 -9 11 -16 16 -16 13 0 5 23 -10 28 -7 2 -10 -2 -6 -12z"/>
<path d="M4168 1753 c7 -3 16 -2 19 1 4 3 -2 6 -13 5 -11 0 -14 -3 -6 -6z"/>
<path d="M4235 1750 c-4 -6 -3 -10 2 -10 4 0 1 -5 -7 -10 -13 -8 -13 -10 1
-10 25 0 44 26 25 33 -9 4 -18 2 -21 -3z"/>
<path d="M4395 1750 c-3 -5 -1 -10 4 -10 6 0 11 5 11 10 0 6 -2 10 -4 10 -3 0
-8 -4 -11 -10z"/>
<path d="M2715 1730 c-3 -6 1 -7 9 -4 18 7 21 14 7 14 -6 0 -13 -4 -16 -10z"/>
<path d="M4364 1722 c4 -3 14 -7 22 -8 9 -1 13 0 10 4 -4 3 -14 7 -22 8 -9 1
-13 0 -10 -4z"/>
<path d="M4650 1720 c0 -5 5 -10 11 -10 5 0 7 5 4 10 -3 6 -8 10 -11 10 -2 0
-4 -4 -4 -10z"/>
<path d="M2758 1703 c7 -3 16 -2 19 1 4 3 -2 6 -13 5 -11 0 -14 -3 -6 -6z"/>
<path d="M4190 1629 c0 -6 -9 -9 -20 -6 -11 3 -20 2 -20 -3 0 -4 18 -10 40
-12 22 -2 40 0 40 4 0 5 -6 8 -12 8 -9 0 -8 4 2 10 12 8 11 10 -7 10 -13 0
-23 -5 -23 -11z"/>
<path d="M3536 1604 c9 -37 12 -41 20 -21 3 9 -1 24 -11 33 -15 15 -15 14 -9
-12z"/>
<path d="M2850 1610 c-13 -9 -13 -10 0 -9 8 0 24 4 35 9 l20 9 -20 0 c-11 0
-27 -4 -35 -9z"/>
<path d="M3000 1595 c-7 -8 -8 -15 -2 -15 5 0 15 7 22 15 7 8 8 15 2 15 -5 0
-15 -7 -22 -15z"/>
<path d="M3054 1596 c-10 -8 -16 -17 -13 -20 10 -10 39 5 39 20 0 17 -2 17
-26 0z"/>
<path d="M3201 1563 c-1 -12 -7 -24 -13 -26 -10 -4 -10 -6 0 -6 15 -1 26 23
19 41 -3 7 -6 3 -6 -9z"/>
<path d="M3065 1560 c-3 -5 -1 -10 4 -10 6 0 11 5 11 10 0 6 -2 10 -4 10 -3 0
-8 -4 -11 -10z"/>
<path d="M3297 1563 c-4 -3 -7 -18 -7 -31 0 -32 13 -20 15 13 1 28 1 28 -8 18z"/>
<path d="M2748 1555 c-7 -7 15 -75 24 -75 11 0 10 8 -3 31 -9 17 -7 21 11 26
16 4 18 8 8 14 -15 10 -32 11 -40 4z"/>
<path d="M2950 1550 c-9 -6 -10 -10 -3 -10 6 0 15 5 18 10 8 12 4 12 -15 0z"/>
<path d="M2907 1503 c-38 -21 -50 -24 -56 -14 -5 7 -17 11 -27 9 -23 -4 -28
-44 -6 -53 8 -3 12 -13 9 -25 -3 -11 -1 -18 4 -14 5 3 9 0 9 -5 0 -6 3 -10 8
-9 18 4 63 -23 56 -34 -5 -8 -2 -9 10 -5 14 5 17 3 13 -8 -4 -8 3 -21 15 -29
12 -9 17 -19 12 -27 -5 -9 -2 -11 9 -6 11 4 20 -1 27 -13 6 -11 7 -20 3 -20
-4 0 4 -8 18 -18 14 -9 24 -23 22 -29 -3 -7 0 -13 7 -13 8 0 8 -6 0 -20 -9
-16 -8 -20 5 -20 9 0 13 -4 10 -10 -3 -5 -1 -10 6 -10 7 0 9 -3 6 -7 -4 -3 3
-13 14 -21 16 -11 18 -16 8 -23 -11 -6 -10 -9 3 -14 9 -4 15 -12 12 -19 -3 -7
5 -18 18 -24 14 -7 17 -11 8 -12 -8 0 3 -12 25 -25 30 -19 35 -25 20 -26 -11
0 -14 -3 -7 -6 6 -2 9 -9 6 -15 -3 -5 3 -12 15 -15 12 -3 21 -8 22 -12 5 -47
10 -65 20 -71 6 -4 12 -28 13 -52 1 -24 8 -55 17 -69 19 -30 14 -55 -12 -62
-11 -3 -19 -14 -19 -25 0 -11 -7 -23 -16 -26 -8 -3 -13 -10 -9 -15 3 -6 -4 -8
-16 -6 -20 4 -20 3 -5 -20 9 -13 16 -28 16 -32 0 -4 -5 -1 -10 7 -9 13 -13 12
-28 -8 l-18 -24 -17 26 c-9 14 -17 30 -17 36 0 9 -6 10 -37 10 -10 0 -9 -36 2
-70 7 -24 7 -24 -9 -5 -12 16 -17 17 -24 7 -11 -16 -10 -16 -46 -2 l-29 11 6
-36 c5 -33 4 -34 -14 -24 -22 11 -49 -3 -49 -26 0 -7 -7 -18 -15 -25 -16 -14
-20 -46 -6 -54 4 -3 35 -1 67 5 32 6 93 17 134 24 41 7 84 15 95 18 11 3 26 6
33 6 6 1 12 9 12 18 0 13 3 14 12 5 17 -17 53 -15 69 4 10 13 10 17 0 24 -11
6 -11 9 0 13 11 4 11 6 1 6 -10 1 -10 6 -2 21 15 27 -4 25 -24 -2 -15 -23 -15
-22 -5 7 10 29 10 29 -11 10 -11 -10 -23 -16 -26 -13 -7 7 37 78 60 97 9 7 16
20 16 27 0 8 4 14 9 14 13 0 1 40 -13 40 -6 0 1 11 16 25 22 19 24 24 11 27
-13 2 -11 9 11 36 22 25 24 31 9 26 -14 -4 -13 -2 4 11 20 15 21 19 7 32 -8 8
-22 12 -32 9 -12 -4 -11 -2 3 7 11 7 35 28 55 47 l35 34 -30 6 -30 6 40 9 c22
5 45 9 50 9 14 1 35 22 35 35 0 14 6 14 31 -1 17 -10 23 -10 26 0 3 6 11 12
19 12 20 0 18 17 -3 29 -10 5 -29 28 -43 50 -14 23 -30 41 -37 41 -7 0 -14 7
-14 15 -1 8 -3 20 -4 25 -1 6 -3 15 -4 20 -2 17 -21 11 -22 -7 0 -15 -2 -15
-9 2 -7 17 -9 17 -9 3 -1 -10 -5 -18 -11 -18 -17 0 -11 18 10 33 19 13 19 14
-10 40 -16 15 -32 27 -35 27 -12 0 -4 -35 12 -52 27 -31 6 -32 -23 -2 -17 18
-25 22 -21 12 4 -10 2 -18 -2 -18 -5 0 -7 -9 -4 -20 4 -13 0 -20 -9 -20 -10 0
-13 8 -10 29 2 16 0 31 -6 35 -6 3 -5 22 1 52 10 44 10 47 -16 66 -19 14 -26
26 -22 38 3 10 1 21 -5 25 -7 4 -10 0 -8 -11 2 -15 -2 -18 -20 -16 -13 2 -30
-2 -39 -10 -14 -11 -16 -10 -11 9 10 40 -32 56 -60 23 -11 -13 -12 -9 -9 23 3
37 2 37 -26 33 -36 -6 -49 -23 -42 -56 l5 -25 -14 24 c-10 18 -15 20 -19 10
-4 -10 -6 -9 -6 4 -1 9 4 17 11 17 6 0 8 3 5 7 -4 4 -21 -3 -37 -16 -30 -22
-44 -9 -18 17 17 17 18 40 2 46 -17 6 -18 -6 -3 -21 8 -8 4 -16 -15 -28 -15
-10 -30 -14 -34 -10 -4 4 -1 10 6 12 14 5 17 53 3 53 -5 0 -14 -7 -21 -15 -7
-8 -21 -15 -31 -15 -11 0 -28 -9 -39 -20 l-20 -20 0 20 c0 12 7 20 16 20 22 0
104 41 104 52 0 11 2 11 -53 -19z m176 -68 c-3 -9 -8 -14 -10 -11 -3 3 -2 9 2
15 9 16 15 13 8 -4z m-33 -68 c0 -18 -2 -19 -10 -7 -13 20 -13 43 0 35 6 -3
10 -16 10 -28z m101 -10 c-10 -9 -11 -8 -5 6 3 10 9 15 12 12 3 -3 0 -11 -7
-18z m119 -7 c0 -5 -4 -10 -10 -10 -5 0 -10 5 -10 10 0 6 5 10 10 10 6 0 10
-4 10 -10z m40 -30 c0 -5 -2 -10 -4 -10 -3 0 -8 5 -11 10 -3 6 -1 10 4 10 6 0
11 -4 11 -10z m-50 -694 c0 -3 -4 -8 -10 -11 -5 -3 -10 -1 -10 4 0 6 5 11 10
11 6 0 10 -2 10 -4z m-120 -186 c0 -5 -5 -10 -11 -10 -5 0 -7 5 -4 10 3 6 8
10 11 10 2 0 4 -4 4 -10z"/>
<path d="M3040 1505 c0 -8 2 -15 4 -15 2 0 6 7 10 15 3 8 1 15 -4 15 -6 0 -10
-7 -10 -15z"/>
<path d="M3076 1505 c-3 -8 -1 -15 3 -15 5 0 11 7 15 15 3 8 1 15 -3 15 -5 0
-11 -7 -15 -15z"/>
<path d="M3170 1496 c0 -8 4 -17 9 -20 5 -4 7 3 4 14 -6 23 -13 26 -13 6z"/>
<path d="M3231 1484 c0 -11 3 -14 6 -6 3 7 2 16 -1 19 -3 4 -6 -2 -5 -13z"/>
<path d="M3245 1410 c-3 -5 -1 -10 4 -10 6 0 11 5 11 10 0 6 -2 10 -4 10 -3 0
-8 -4 -11 -10z"/>
<path d="M3645 1415 c-5 -2 -22 -6 -37 -9 -19 -4 -28 -13 -28 -25 0 -11 -6
-22 -12 -24 -8 -4 -4 -8 9 -12 12 -4 24 -14 26 -24 2 -9 7 1 11 22 8 38 22 48
32 22 9 -23 23 -8 22 25 -1 30 -3 32 -23 25z"/>
<path d="M3680 1400 c0 -5 5 -10 10 -10 6 0 10 5 10 10 0 6 -4 10 -10 10 -5 0
-10 -4 -10 -10z"/>
<path d="M3430 1371 c0 -6 4 -13 10 -16 6 -3 7 1 4 9 -7 18 -14 21 -14 7z"/>
<path d="M3695 1370 c-3 -5 -1 -10 4 -10 6 0 11 5 11 10 0 6 -2 10 -4 10 -3 0
-8 -4 -11 -10z"/>
<path d="M3371 1294 c0 -11 3 -14 6 -6 3 7 2 16 -1 19 -3 4 -6 -2 -5 -13z"/>
<path d="M3485 1240 c3 -5 8 -10 11 -10 2 0 4 5 4 10 0 6 -5 10 -11 10 -5 0
-7 -4 -4 -10z"/>
<path d="M6383 1217 c-4 -8 -25 -17 -46 -20 -20 -3 -35 -2 -32 3 7 11 -22 18
-60 15 -16 -1 -38 -3 -47 -4 -10 0 -18 -8 -18 -16 0 -8 -8 -15 -18 -15 -29 0
-90 -52 -102 -87 -6 -17 -17 -34 -25 -37 -31 -12 23 -106 61 -106 8 0 13 -4 9
-9 -12 -20 16 -21 69 -3 30 10 61 23 68 29 7 6 33 18 58 26 106 35 100 28 100
139 0 54 -2 98 -5 98 -2 0 -8 -6 -12 -13z"/>
<path d="M3570 1193 c0 -5 7 -17 15 -27 15 -20 20 -10 9 18 -6 16 -24 22 -24
9z"/>
<path d="M3607 1166 c3 -19 0 -42 -7 -52 -10 -16 -11 -17 -6 -1 6 20 -2 21
-27 3 -14 -11 -16 -19 -7 -40 5 -14 16 -26 25 -26 8 0 15 -4 15 -10 0 -5 7
-10 16 -10 10 0 14 6 10 15 -3 8 -1 15 4 15 14 0 23 61 12 84 -6 11 -13 29
-16 39 -10 31 -25 18 -19 -17z"/>
<path d="M3545 1155 c6 -29 6 -29 -10 -10 -16 20 -17 20 -13 -5 4 -29 26 -33
42 -8 8 14 7 22 -7 35 -18 17 -18 17 -12 -12z"/>
<path d="M3650 1172 c0 -5 7 -17 15 -28 14 -18 14 -18 15 9 0 17 -5 27 -15 27
-8 0 -15 -4 -15 -8z"/>
<path d="M3688 1113 c7 -3 16 -2 19 1 4 3 -2 6 -13 5 -11 0 -14 -3 -6 -6z"/>
<path d="M3707 1105 c-14 -10 -15 -14 -5 -19 7 -3 1 -4 -14 -2 -16 2 -28 -1
-28 -5 0 -15 60 -10 66 6 10 24 0 34 -19 20z"/>
<path d="M312 1041 c-11 -6 -10 -10 4 -15 20 -8 32 0 18 14 -5 5 -15 5 -22 1z"/>
<path d="M1180 956 c0 -2 7 -6 15 -10 8 -3 15 -1 15 4 0 6 -7 10 -15 10 -8 0
-15 -2 -15 -4z"/>
<path d="M1220 940 c0 -5 5 -10 11 -10 5 0 7 5 4 10 -3 6 -8 10 -11 10 -2 0
-4 -4 -4 -10z"/>
<path d="M2600 740 c-8 -5 -11 -12 -7 -16 4 -4 13 -2 19 4 15 15 7 24 -12 12z"/>
<path d="M2598 705 c-3 -6 -6 -32 -7 -58 -1 -50 13 -57 22 -11 5 29 -6 84 -15
69z"/>
<path d="M5301 696 c12 -10 59 -15 59 -6 0 5 -14 10 -32 10 -17 0 -29 -2 -27
-4z"/>
<path d="M4955 671 c3 -5 -7 -12 -22 -14 -23 -3 -21 -4 10 -6 37 -1 50 12 21
23 -8 3 -12 2 -9 -3z"/>
<path d="M5200 630 c0 -5 5 -10 11 -10 5 0 7 5 4 10 -3 6 -8 10 -11 10 -2 0
-4 -4 -4 -10z"/>
<path d="M4954 621 c4 -5 -13 -12 -36 -16 -50 -8 -85 -24 -55 -25 11 0 15 -4
11 -12 -5 -8 14 -9 76 -4 96 8 111 14 78 30 -51 25 -79 36 -74 27z m33 -27
c-3 -3 -12 -4 -19 -1 -8 3 -5 6 6 6 11 1 17 -2 13 -5z"/>
<path d="M5065 600 c3 -5 13 -10 21 -10 8 0 12 5 9 10 -3 6 -13 10 -21 10 -8
0 -12 -4 -9 -10z"/>
<path d="M2590 558 c0 -36 4 -35 14 5 4 16 2 27 -4 27 -5 0 -10 -14 -10 -32z"/>
<path d="M4900 540 c23 -7 23 -8 3 -9 -29 -1 -53 -11 -53 -22 0 -15 50 -10 66
6 9 8 26 15 40 15 13 0 24 5 24 10 0 6 -24 10 -52 9 -42 -1 -48 -3 -28 -9z"/>
<path d="M3836 505 c-9 -26 -7 -32 5 -12 6 10 9 21 6 23 -2 3 -7 -2 -11 -11z"/>
<path d="M2100 500 c-8 -5 -12 -11 -9 -14 2 -3 11 -1 19 4 8 5 12 11 9 14 -2
3 -11 1 -19 -4z"/>
<path d="M4615 460 c-7 -11 25 -11 70 0 27 7 25 8 -17 9 -26 0 -50 -3 -53 -9z"/>
<path d="M2077 432 c-10 -10 -14 -22 -10 -25 12 -12 20 -8 31 18 14 29 2 33
-21 7z"/>
<path d="M3818 434 c-5 -4 -8 -23 -8 -43 1 -30 2 -33 11 -18 11 19 8 73 -3 61z"/>
<path d="M4310 414 c0 -5 7 -19 15 -30 8 -10 15 -14 15 -8 0 5 -7 19 -15 30
-8 10 -15 14 -15 8z"/>
<path d="M2789 379 c-8 -16 -8 -24 2 -33 9 -8 10 -8 5 1 -4 7 -2 22 4 33 6 11
8 20 6 20 -3 0 -10 -9 -17 -21z"/>
<path d="M2830 376 c0 -9 5 -16 10 -16 6 0 10 4 10 9 0 6 -4 13 -10 16 -5 3
-10 -1 -10 -9z"/>
<path d="M2601 354 c0 -11 3 -14 6 -6 3 7 2 16 -1 19 -3 4 -6 -2 -5 -13z"/>
<path d="M4561 341 c-32 -6 -33 -7 -18 -22 18 -18 13 -29 -14 -29 -10 0 -19
-10 -23 -25 -7 -27 -40 -65 -56 -65 -6 0 -15 11 -21 24 -6 13 -19 26 -28 29
-9 3 -23 8 -31 11 -21 9 -24 -49 -4 -80 15 -22 15 -24 -2 -24 -9 0 -26 7 -36
17 -17 15 -18 15 -18 -5 0 -18 -6 -22 -32 -23 -18 -1 -37 -2 -43 -4 -5 -1 -23
-3 -39 -3 -21 -2 -27 -6 -22 -17 3 -8 9 -22 13 -32 5 -13 2 -15 -15 -11 -12 4
-20 2 -16 -3 11 -18 -16 -9 -33 11 -10 11 -20 20 -24 20 -14 0 -16 -40 -3 -64
12 -25 11 -26 -12 -26 -13 0 -24 -5 -24 -10 0 -16 450 -12 525 5 59 13 59 13
20 15 l-40 3 45 8 c25 5 62 11 83 15 54 9 46 22 -11 17 -27 -2 -66 1 -88 6
l-39 9 45 2 c25 1 68 2 95 2 l50 0 -40 8 c-39 7 -39 7 20 10 48 3 53 4 25 8
l-35 6 40 7 c29 5 17 7 -48 7 -48 -1 -90 2 -94 6 -3 3 5 6 18 7 30 1 101 27
76 28 -10 1 -20 8 -23 16 -4 9 -19 15 -38 15 -58 0 -5 20 59 22 l60 1 -60 7
c-33 4 -48 7 -32 8 41 3 33 22 -10 23 l-38 1 32 8 c17 4 39 15 48 24 9 9 35
17 58 18 23 1 2 4 -48 8 -49 3 -97 9 -105 12 -8 3 -30 3 -49 -1z"/>
<path d="M6160 320 c13 -8 12 -10 -2 -10 -10 0 -18 -3 -18 -8 0 -4 18 -7 41
-7 40 0 40 0 19 17 -12 10 -30 18 -39 18 -14 0 -14 -2 -1 -10z"/>
<path d="M2865 301 c7 -24 -25 -37 -53 -22 -24 13 -62 3 -62 -15 0 -8 -9 -14
-21 -14 -11 0 -17 5 -14 10 3 6 -2 11 -12 11 -10 1 -33 3 -50 5 -18 1 -33 -2
-33 -7 0 -5 -9 -4 -20 3 -15 10 -22 10 -32 0 -26 -26 10 -34 163 -38 85 -2
148 -1 141 2 -29 13 4 24 76 25 l77 2 -67 7 c-105 10 -108 31 -5 41 l62 6 -78
1 c-73 2 -78 1 -72 -17z"/>
<path d="M5840 310 l-35 -7 42 -2 c23 0 45 4 48 9 7 11 -3 11 -55 0z"/>
<path d="M2428 296 c-16 -15 -14 -56 2 -56 18 0 30 28 22 50 -8 20 -10 21 -24
6z"/>
<path d="M2208 293 c6 -2 18 -2 25 0 6 3 1 5 -13 5 -14 0 -19 -2 -12 -5z"/>
<path d="M5968 283 c6 -2 18 -2 25 0 6 3 1 5 -13 5 -14 0 -19 -2 -12 -5z"/>
<path d="M2470 250 c-13 -8 -12 -10 3 -10 9 0 17 5 17 10 0 12 -1 12 -20 0z"/>
<path d="M3058 233 c7 -3 16 -2 19 1 4 3 -2 6 -13 5 -11 0 -14 -3 -6 -6z"/>
<path d="M4793 233 c9 -2 23 -2 30 0 6 3 -1 5 -18 5 -16 0 -22 -2 -12 -5z"/>
<path d="M6378 223 c7 -3 16 -2 19 1 4 3 -2 6 -13 5 -11 0 -14 -3 -6 -6z"/>
<path d="M1928 203 c7 -3 16 -2 19 1 4 3 -2 6 -13 5 -11 0 -14 -3 -6 -6z"/>
<path d="M5880 200 c-24 -8 -24 -8 5 -8 17 0 39 3 50 8 18 8 18 9 -5 8 -14 0
-36 -4 -50 -8z"/>
<path d="M2178 193 c12 -2 32 -2 45 0 12 2 2 4 -23 4 -25 0 -35 -2 -22 -4z"/>
<path d="M2268 193 c7 -3 16 -2 19 1 4 3 -2 6 -13 5 -11 0 -14 -3 -6 -6z"/>
<path d="M2475 176 c74 -12 95 -13 84 -2 -2 3 -40 7 -84 10 l-80 6 80 -14z"/>
<path d="M2570 170 c0 -6 17 -10 37 -10 43 0 41 5 -4 13 -19 4 -33 2 -33 -3z"/>
<path d="M5618 173 c7 -3 16 -2 19 1 4 3 -2 6 -13 5 -11 0 -14 -3 -6 -6z"/>
<path d="M5658 173 c6 -2 18 -2 25 0 6 3 1 5 -13 5 -14 0 -19 -2 -12 -5z"/>
<path d="M6168 173 c7 -3 16 -2 19 1 4 3 -2 6 -13 5 -11 0 -14 -3 -6 -6z"/>
<path d="M5548 163 c7 -3 16 -2 19 1 4 3 -2 6 -13 5 -11 0 -14 -3 -6 -6z"/>
<path d="M2693 153 c26 -2 67 -2 90 0 23 2 2 3 -48 3 -49 0 -68 -1 -42 -3z"/>
<path d="M6077 153 c-13 -12 -7 -23 11 -22 10 0 12 3 4 6 -6 2 -10 9 -6 14 6
10 0 12 -9 2z"/>
<path d="M6128 143 c6 -2 18 -2 25 0 6 3 1 5 -13 5 -14 0 -19 -2 -12 -5z"/>
<path d="M6248 123 c7 -3 16 -2 19 1 4 3 -2 6 -13 5 -11 0 -14 -3 -6 -6z"/>
<path d="M2790 110 c-13 -8 -12 -10 3 -10 9 0 17 5 17 10 0 12 -1 12 -20 0z"/>
<path d="M4768 93 c7 -3 16 -2 19 1 4 3 -2 6 -13 5 -11 0 -14 -3 -6 -6z"/>
<path d="M5008 83 c6 -2 18 -2 25 0 6 3 1 5 -13 5 -14 0 -19 -2 -12 -5z"/>
<path d="M4898 73 c12 -2 30 -2 40 0 9 3 -1 5 -23 4 -22 0 -30 -2 -17 -4z"/>
<path d="M5308 73 c6 -2 18 -2 25 0 6 3 1 5 -13 5 -14 0 -19 -2 -12 -5z"/>
<path d="M5998 73 c6 -2 18 -2 25 0 6 3 1 5 -13 5 -14 0 -19 -2 -12 -5z"/>
<path d="M6328 73 c7 -3 16 -2 19 1 4 3 -2 6 -13 5 -11 0 -14 -3 -6 -6z"/>
<path d="M4950 50 c-18 -12 -2 -12 25 0 13 6 15 9 5 9 -8 0 -22 -4 -30 -9z"/>
<path d="M5039 48 c23 -6 37 -6 44 1 8 8 -2 11 -33 10 l-45 -1 34 -10z"/>
<path d="M5128 53 c6 -2 18 -2 25 0 6 3 1 5 -13 5 -14 0 -19 -2 -12 -5z"/>
<path d="M5775 50 c-3 -5 -1 -10 4 -10 6 0 11 5 11 10 0 6 -2 10 -4 10 -3 0
-8 -4 -11 -10z"/>
<path d="M2250 30 c91 -11 446 -24 439 -16 -5 6 -102 11 -374 20 -93 3 -111 2
-65 -4z"/>
<path d="M3338 33 c7 -3 16 -2 19 1 4 3 -2 6 -13 5 -11 0 -14 -3 -6 -6z"/>
<path d="M4660 30 c0 -5 9 -10 20 -10 11 0 20 5 20 10 0 6 -9 10 -20 10 -11 0
-20 -4 -20 -10z"/>
<path d="M4743 33 c15 -2 39 -2 55 0 15 2 2 4 -28 4 -30 0 -43 -2 -27 -4z"/>
<path d="M4845 30 c3 -5 13 -10 21 -10 8 0 14 5 14 10 0 6 -9 10 -21 10 -11 0
-17 -4 -14 -10z"/>
<path d="M3761 14 c0 -11 3 -14 6 -6 3 7 2 16 -1 19 -3 4 -6 -2 -5 -13z"/>
<path d="M4002 18 c3 -7 13 -15 22 -16 12 -3 17 1 14 10 -3 7 -13 15 -22 16
-12 3 -17 -1 -14 -10z"/>
<path d="M2753 13 c32 -2 81 -2 110 0 29 2 3 3 -58 3 -60 0 -84 -1 -52 -3z"/>
<path d="M2940 16 c0 -8 48 -12 66 -5 13 5 7 8 -23 8 -24 1 -43 -1 -43 -3z"/>
<path d="M5860 10 c0 -5 5 -10 10 -10 6 0 10 5 10 10 0 6 -4 10 -10 10 -5 0
-10 -4 -10 -10z"/>
<path d="M5818 3 c7 -3 16 -2 19 1 4 3 -2 6 -13 5 -11 0 -14 -3 -6 -6z"/>
</g>
</svg>
